<?xml version="1.0" standalone="no"?>
<!DOCTYPE svg PUBLIC "-//W3C//DTD SVG 1.1//EN" "http://www.w3.org/Graphics/SVG/1.1/DTD/svg11.dtd" >
<svg xmlns="http://www.w3.org/2000/svg">
<metadata>Generated by IcoMoon</metadata>
<defs>
<font id="iconosgobsf" horiz-adv-x="512">
<font-face units-per-em="512" ascent="480" descent="-32" />
<missing-glyph horiz-adv-x="512" />
<glyph unicode="&#x20;" horiz-adv-x="256" d="" />
<glyph unicode="&#xe600;" glyph-name="facebook" d="M315.244 223.889h-43.077c0-68.841 0-153.611 0-153.611h-63.856c0 0 0 83.945 0 153.611h-30.349v54.266h30.349v35.129c0 25.148 11.951 64.438 64.438 64.438l47.285-0.201v-52.671c0 0-28.75 0-34.331 0-5.598 0-13.536-2.798-13.536-14.765v-31.929h48.659l-5.582-54.266z" />
<glyph unicode="&#xe601;" glyph-name="twitter" d="M384.926 285.125c0.13-2.853 0.195-5.722 0.195-8.606 0-87.906-66.91-189.269-189.267-189.269-37.566 0-72.532 11.014-101.971 29.889 5.204-0.616 10.499-0.932 15.868-0.932 31.166 0 59.85 10.635 82.615 28.478-29.111 0.535-53.677 19.769-62.141 46.195 4.063-0.776 8.23-1.193 12.516-1.193 6.066 0 11.944 0.813 17.525 2.334-30.431 6.113-53.362 32.998-53.362 65.227 0 0.281 0 0.559 0.007 0.837 8.968-4.983 19.225-7.975 30.129-8.321-17.85 11.928-29.593 32.29-29.593 55.369 0 12.191 3.281 23.618 9.007 33.442 32.809-40.247 81.823-66.729 137.111-69.502-1.136 4.868-1.722 9.947-1.722 15.159 0 36.737 29.784 66.519 66.52 66.519 19.135 0 36.423-8.077 48.555-21.006 15.153 2.983 29.389 8.519 42.243 16.143-4.969-15.534-15.515-28.571-29.248-36.803 13.455 1.608 26.276 5.183 38.205 10.475-8.918-13.341-20.195-25.056-33.192-34.435z" />
<glyph unicode="&#xe602;" glyph-name="youtube" d="M221.897 385.998h-22.297l-15.056-47.55-15.654 47.55h-23.196c4.642-11.223 9.494-22.506 14.137-33.743 7.076-16.888 11.478-29.628 13.477-38.327v-49.053h22.054v49.053l26.535 72.070zM280.836 294.096v31.627c0 9.644-2 16.692-6.175 21.258-5.498 6.161-13.223 9.255-23.199 9.255-9.915 0-17.652-3.093-23.166-9.255-4.222-4.565-6.22-11.615-6.22-21.258v-31.627c0-9.585 1.998-16.691 6.22-21.228 5.514-6.146 13.251-9.24 23.166-9.24 9.976 0 17.701 3.093 23.199 9.24 4.173 4.537 6.175 11.644 6.175 21.228zM260.943 291.016c0-8.337-3.078-12.53-9.48-12.53-6.429 0-9.495 4.193-9.495 12.53v37.982c0 8.353 3.066 12.516 9.495 12.516 6.403 0 9.48-4.163 9.48-12.516v-37.981zM354.394 264.875v90.264h-19.906v-68.99c-4.388-5.123-8.579-7.661-12.563-7.661-2.657 0-4.204 1.306-4.658 3.846-0.24 0.526-0.24 2.524-0.24 6.356v66.45h-19.829v-71.364c0-6.37 0.673-10.697 1.771-13.431 1.986-4.567 6.4-6.716 12.801-6.716 7.256 0 14.81 3.635 22.716 11.103v-9.856h19.906zM365.062 173.243c-6.567 0-9.871-4.149-9.871-12.396v-8.265h19.682v8.265c0 8.247-3.291 12.396-9.812 12.396zM413.182 218.644c-3.997 14.229-18.149 24.746-35.199 26.308-40.387 3.713-81.265 3.728-121.954 3.713-40.685 0.016-81.549 0-121.934-3.713-17.053-1.561-31.22-12.079-35.186-26.308-5.681-20.295-5.741-42.427-5.741-63.31s0-43.029 5.665-63.31c3.98-14.245 18.132-24.745 35.186-26.308 40.384-3.712 81.264-3.728 121.95-3.712 40.687-0.015 81.551 0 121.936 3.712 17.050 1.562 31.221 12.063 35.2 26.308 5.68 20.281 5.724 42.428 5.724 63.31s0.015 43.015-5.65 63.31zM186.048 200.389h-23.572v-103.001h-21.892v103.001h-23.153v16.887h68.617v-16.887zM245.514 97.388h-19.697v9.748c-7.815-7.378-15.251-10.967-22.492-10.967-6.34 0-10.696 2.117-12.681 6.642-1.083 2.705-1.728 6.973-1.728 13.281v70.629h19.666v-65.762c0-3.785 0-5.768 0.179-6.295 0.483-2.507 1.984-3.785 4.614-3.785 3.952 0 8.068 2.508 12.44 7.572v68.27h19.697v-89.334zM320.274 124.203c0-8.264-0.678-14.212-1.983-17.998-2.63-6.656-7.891-10.038-15.748-10.038-6.983 0-13.745 3.201-20.31 9.885v-8.666h-19.681v119.889h19.682v-39.166c6.339 6.444 13.085 9.689 20.31 9.689 7.857 0 13.118-3.38 15.748-10.082 1.305-3.589 1.983-9.495 1.983-17.954v-35.562zM394.553 139.107h-39.363v-15.834c0-8.263 3.305-12.394 10.051-12.394 4.851 0 7.68 2.161 8.787 6.488 0.182 0.887 0.438 4.476 0.438 10.969h20.086v-2.377c0-5.198-0.24-8.787-0.421-10.413-0.661-3.589-2.223-6.832-4.596-9.702-5.454-6.476-13.52-9.678-23.798-9.678-10.305 0-18.135 3.051-23.829 9.151-4.178 4.462-6.31 11.509-6.31 21.003v31.279c0 9.555 1.894 16.527 6.070 21.049 5.678 6.117 13.522 9.149 23.572 9.149 9.87 0 17.712-3.033 23.214-9.149 4.115-4.522 6.098-11.495 6.098-21.049v-18.494zM292.029 173.243c-3.231 0-6.521-1.279-9.796-3.936v-54.449c3.276-2.703 6.565-3.98 9.796-3.98 5.679 0 8.561 3.98 8.561 12.048v38.117c0 8.053-2.882 12.2-8.561 12.2z" />
<glyph unicode="&#xe603;" glyph-name="gsf" d="M419.45 177.45c0.75 6.9 7.050 12.25 13.95 12.25h46.6c6.95 0 7.55 2.75 1.35 5.95l-42.55 21.75c-6.15 3.15-10 11.3-8.5 18.050l4.1 18.7c1.5 6.75-2.4 9.8-8.55 6.65l-25.050-12.55c-6.2-3.1-16.3-3.1-22.5 0.1l-36.35 18.6c-6.2 3.15-8.7 0.65-5.55-5.5l12.7-25.2c3.1-6.2 0.65-13.85-5.55-17l-46.45-23.8c-6.15-3.15-5.55-5.75 1.4-5.75l61.65-0.050c6.95 0 15.2-5 18.4-11.2l28.1-54.9c3.15-6.15 6.4-5.55 7.1 1.35l5.7 52.55zM297.050 290.15c-5.8 2.95-7.45 9.7-3.6 15l8.8 12.2c3.8 5.25 1.8 8.15-4.45 6.35l-31.3-8.95c-6.25-1.8-16.1-0.85-21.9 2.15l-27.5 14.1c-5.75 2.95-9.15 0.25-7.5-6.050l3.6-13.45c1.7-6.3-2.050-12.95-8.3-14.8l-53.75-15.85c-6.25-1.85-6-3.6 0.45-3.85l60.2-2.6c6.5-0.25 13.2-5.65 14.9-11.95l7.5-28.15c1.7-6.3 6-7 9.6-1.55l19.4 29.25c3.6 5.4 11.85 9.6 18.35 9.25l46.1-2.25c6.5-0.3 7.050 1.85 1.3 4.8l-31.9 16.35zM204 334.5c4.3-0.35 4.65 0.9 0.85 2.85l-30.2 15.3c-3.85 1.95-4.1 5.6-0.65 8.15l18.3 13.35c3.45 2.5 2.85 4.050-1.4 3.35l-41.2-6.8c-4.25-0.7-10.85 0.35-14.65 2.3l-26.65 13.7c-3.85 2-7 0.050-7-4.25l-0.1-11.9c0-4.3-3.55-8.4-7.75-9.1l-63.85-10.65c-4.25-0.7-4.2-1.6 0.1-1.9l63.4-5.1c4.3-0.35 7.8-4.15 7.8-8.45v-22.25c0-4.3 2.8-5.65 6.15-3l31.9 24.8c3.4 2.65 9.7 4.5 13.95 4.1l51-4.5zM384.95 256.8c2.4-4.15 5.6-3.85 7.1 0.7l7.65 22.65c1.5 4.55 6.65 7.95 11.4 7.6l39.65-2.9c4.75-0.35 5.15 1.050 0.85 3.1l-34.2 16.3c-4.3 2.050-6.5 7.4-4.85 11.9l4.050 10.95c1.65 4.5-0.75 6.95-5.25 5.45l-22.85-7.5c-4.55-1.45-11.8-1-16.1 1.050l-30.6 14.65c-4.3 2.050-5.9 0.35-3.45-3.75l9.45-16.2c2.4-4.15 0.65-8.7-3.85-10.2l-37.65-12.3c-4.55-1.45-4.35-2.95 0.4-3.3l49.85-3.45c4.75-0.3 10.6-3.95 13-8.1l15.4-26.65zM187.3 359.75c-4.55-0.9-4.5-1.95 0.15-2.4l48.65-4.5c4.6-0.45 9.7-4.35 11.25-8.75l6.2-17.55c1.55-4.4 5.3-5.1 8.35-1.55l14.35 16.55c3 3.5 9.35 6 13.95 5.55l40-4.050c4.65-0.45 5 0.8 0.8 2.85l-28 13.55c-4.2 2-5.1 6.55-2.1 10.050l7.050 8.1c3.050 3.5 1.8 5.65-2.75 4.8l-27.65-5.3c-4.55-0.85-11.7 0.1-15.85 2.1l-25.45 12.4c-4.2 2.050-6.3 0.1-4.7-4.25l3.55-9.85c1.6-4.35-0.85-8.65-5.4-9.55l-42.4-8.2z" />
<glyph unicode="&#xe604;" glyph-name="mas" d="M256 480c-141.4 0-256-114.6-256-256s114.6-256 256-256 256 114.6 256 256c0 141.4-114.6 256-256 256zM256-11.519c-129.86 0-235.519 105.659-235.519 235.519s105.659 235.52 235.519 235.52 235.52-105.66 235.52-235.52c0-129.86-105.66-235.519-235.52-235.519zM266.24 377.6h-20.481v-143.36h-142.68v-20.48h142.68v-142.68h20.481v142.68h143.36v20.48h-143.36v143.36z" />
<glyph unicode="&#xe605;" glyph-name="corazon" d="M256 480c-141.4 0-256-114.6-256-256s114.6-256 256-256c141.4 0 256 114.6 256 256s-114.6 256-256 256zM256-11.697c-129.952 0-235.697 105.736-235.697 235.697s105.746 235.697 235.697 235.697c129.962 0 235.698-105.736 235.698-235.697s-105.736-235.697-235.698-235.697zM319.74 332.536c-25.4 0-48.719-11.761-63.74-31.14-15.020 19.38-38.34 31.14-63.739 31.14-44.46 0-80.61-36.051-80.61-80.361 0-20.82 7.98-40.57 22.469-55.62l121.879-122.090 8.19 8.18 111.53 111.75c15.81 15.13 24.63 35.719 24.63 57.78-0.001 44.31-36.16 80.361-80.61 80.361zM361.484 208.841l-0.075-0.072-105.41-105.618-107.29 107.499c-10.808 11.243-16.76 25.988-16.76 41.525 0 33.139 27.055 60.1 60.31 60.1 24.413 0 46.264-14.522 55.667-36.998l8.071-19.292 8.073 19.292c9.405 22.476 31.257 36.998 55.67 36.998 33.255 0 60.31-26.961 60.31-60.1 0-16.502-6.594-31.891-18.566-43.334z" />
<glyph unicode="&#xe606;" glyph-name="cerrar" d="M392.027 360.025c-75.128 75.13-196.922 75.13-272.050 0-75.136-75.136-75.129-196.922 0-272.050 75.137-75.13 196.922-75.13 272.050 0 75.13 75.129 75.13 196.913 0 272.050zM130.858 98.856c-68.998 68.998-69.004 181.284 0 250.289 69.004 68.998 181.292 68.998 250.289 0 68.998-69.004 68.998-181.292 0-250.289s-181.284-68.998-250.289 0zM343.064 300.173l-10.88 10.88-76.181-76.173-75.812 75.812-10.881-10.88 75.813-75.813-75.813-75.805 10.881-10.88 75.812 75.805 76.182-76.182 10.88 10.896-76.182 76.166 76.182 76.173z" />
<glyph unicode="&#xe607;" glyph-name="audio" d="M186.745 185.524h70.396l52.332-52.317v181.597l-52.332-52.332h-70.396v-76.949zM202.136 247.085h61.379l30.57 30.569v-107.293l-30.57 30.555h-61.379v46.169zM410.305 338.883l-12.399-9.228c22.018-29.517 35.079-66.098 35.079-105.655 0-39.572-13.060-76.138-35.079-105.656l12.399-9.228c23.911 32.058 38.069 71.81 38.069 114.883s-14.157 82.841-38.069 114.883zM373.077 136.83c18.2 24.377 29.127 54.481 29.127 87.17s-10.926 62.791-29.127 87.169l-12.324-9.167c16.291-21.807 26.060-48.755 26.060-78.002s-9.769-56.18-26.060-78.001l12.324-9.168zM336.105 164.349c12.459 16.683 19.928 37.288 19.928 59.651s-7.47 42.983-19.928 59.65l-12.324-9.183c10.55-14.097 16.863-31.531 16.863-50.469s-6.312-36.371-16.863-50.469l12.324-9.183zM256 47.017c-97.599 0-176.983 79.384-176.983 176.983s79.384 176.983 176.983 176.983c48.634 0 92.685-19.777 124.713-51.639l10.941 10.942c-34.806 34.627-82.705 56.089-135.654 56.089-106.242 0-192.374-86.117-192.374-192.374s86.132-192.374 192.374-192.374c52.947 0 100.846 21.462 135.654 56.089l-10.941 10.942c-32.026-31.862-76.077-51.639-124.713-51.639z" />
<glyph unicode="&#xe608;" glyph-name="flechad" d="M256 480c-141.387 0-256-114.611-256-256s114.614-256 256-256c141.39 0 256 114.61 256 256s-114.61 256-256 256zM256 8.477c-119.031 0-215.523 96.488-215.523 215.523 0 119.034 96.492 215.524 215.523 215.524 119.035 0 215.524-96.49 215.524-215.524s-96.488-215.523-215.524-215.523zM328.070 224.001l-85.332 113.778h-45.806l85.333-113.778-85.333-113.779h45.806l85.332 113.779z" />
<glyph unicode="&#xe609;" glyph-name="ubicacion" d="M256.008 480c-94.267 0-170.683-76.433-170.683-170.667 0-31.133 8.366-60.217 22.933-85.333l147.75-256 147.733 256c14.567 25.117 22.933 54.2 22.933 85.334 0 94.233-76.433 170.666-170.667 170.666zM256.008 258.134c-28.233 0-51.199 22.966-51.199 51.2 0 28.216 22.966 51.184 51.199 51.184s51.2-22.967 51.2-51.184c0-28.233-22.966-51.2-51.2-51.2z" />
<glyph unicode="&#xe60a;" glyph-name="boletin" d="M272.955 199.853c-2.517 1.699-5.507 2.888-8.974 3.57-3.468 0.678-7.311 1.019-11.525 1.019h-12.238v-42.426c1.903-0.274 4.112-0.478 6.63-0.613 2.514-0.137 4.793-0.204 6.833-0.204 2.856 0 5.844 0.271 8.974 0.816 3.127 0.541 6.049 1.596 8.771 3.161 2.719 1.562 4.962 3.738 6.731 6.527 1.765 2.786 2.651 6.425 2.651 10.913 0 4.214-0.682 7.716-2.039 10.505-1.361 2.786-3.298 5.029-5.813 6.731zM258.677 227.798c2.923 0.612 5.472 1.698 7.649 3.263 2.173 1.562 3.875 3.672 5.099 6.323s1.836 6.018 1.836 10.096c0 3.942-0.714 7.171-2.142 9.688-1.428 2.515-3.264 4.488-5.507 5.916s-4.762 2.377-7.547 2.856c-2.788 0.475-5.542 0.714-8.261 0.714-3.809 0-7.006-0.203-9.587-0.612v-39.162h8.975c3.397 0 6.559 0.306 9.485 0.918zM440.468 355.762h-74.873c-15.916 0-28.865 12.95-28.865 28.868v95.37h-260.604c-4.619 0-25.094-1.671-25.094-25.094v-461.809c0-4.62 1.67-25.097 25.094-25.097h359.741c23.423 0 25.1 20.478 25.1 25.097v362.665h-20.499zM306.406 159.060c-3.334-5.644-7.822-10.097-13.462-13.361-5.644-3.264-12.171-5.508-19.581-6.731-7.413-1.224-15.197-1.836-23.355-1.836-6.256 0-12.442 0.173-18.561 0.51-6.119 0.341-13.054 0.988-20.805 1.938v146.859c4.351 0.679 9.383 1.224 15.094 1.632 5.712 0.408 12.85 0.612 21.417 0.612 7.477 0 14.549-0.611 21.213-1.836 6.661-1.223 12.474-3.298 17.44-6.221 4.962-2.926 8.873-6.833 11.728-11.728s4.284-11.014 4.284-18.358c0-4.353-0.647-8.398-1.938-12.136-1.294-3.741-3.027-7.005-5.201-9.791-2.177-2.788-4.625-5.098-7.343-6.934-2.722-1.836-5.508-2.957-8.363-3.365 3.127-0.408 6.594-1.361 10.402-2.856 3.805-1.498 7.344-3.707 10.607-6.629 3.264-2.926 5.983-6.699 8.159-11.322 2.173-4.624 3.263-10.198 3.263-16.725 0-8.841-1.666-16.082-4.997-21.723zM357.229 480l103.738-103.738h-95.373c-4.623 0-8.365 3.748-8.365 8.368v95.37z" />
<glyph unicode="&#xe60b;" glyph-name="normativa" d="M365.594 355.762c-15.916 0-28.865 12.95-28.865 28.868v95.37h-260.604c-4.619 0-25.094-1.671-25.094-25.094v-461.809c0-4.62 1.67-25.097 25.094-25.097h359.741c23.423 0 25.1 20.478 25.1 25.097v362.665h-95.373zM309.849 139.579c-4.353-0.816-8.296-1.224-11.831-1.224-3.808 0-7.954 0.408-12.442 1.224l-57.112 93.215v-93.215c-4.353-0.816-8.771-1.224-13.259-1.224s-8.841 0.408-13.053 1.224v146.656c4.214 0.816 8.226 1.224 12.034 1.224 4.079 0 8.292-0.408 12.646-1.224l56.704-93.418v93.418c4.896 0.816 9.587 1.224 14.074 1.224 4.213 0 8.292-0.408 12.238-1.224v-146.655zM357.23 480v0 0zM365.594 376.262h95.373l-103.738 103.738v-95.37c0-4.62 3.741-8.368 8.365-8.368z" />
<glyph unicode="&#xe60c;" glyph-name="aplicativo" d="M365.594 355.762c-15.916 0-28.865 12.95-28.865 28.868v95.37h-260.604c-4.619 0-25.094-1.671-25.094-25.094v-461.809c0-4.62 1.67-25.097 25.094-25.097h359.741c23.423 0 25.1 20.478 25.1 25.097v362.665h-95.373zM302.303 138.356c-5.169 0-10.198 0.408-15.094 1.224l-8.159 29.372h-48.545l-8.363-29.372c-4.895-0.816-9.587-1.224-14.073-1.224-5.032 0-9.994 0.408-14.89 1.224l46.302 146.656c2.856 0.408 5.573 0.714 8.158 0.918 2.582 0.204 5.437 0.306 8.567 0.306 2.719 0 5.37-0.102 7.955-0.306 2.582-0.204 5.438-0.51 8.567-0.918l45.894-146.656c-5.578-0.816-11.014-1.224-16.318-1.224zM237.44 193.631h34.675l-16.93 61.6zM357.23 480v0 0zM365.594 376.262h95.373l-103.738 103.738v-95.37c0-4.62 3.741-8.368 8.365-8.368z" />
<glyph unicode="&#xe60d;" glyph-name="enlace" d="M365.594 355.762c-15.916 0-28.865 12.95-28.865 28.868v95.37h-260.604c-4.619 0-25.094-1.671-25.094-25.094v-461.809c0-4.62 1.67-25.097 25.094-25.097h359.741c23.423 0 25.1 20.478 25.1 25.097v362.665h-95.373zM300.772 139.579h-84.649v146.656h83.221c0.817-4.080 1.224-8.229 1.224-12.442 0-4.488-0.407-8.771-1.224-12.851h-53.441v-31.82h42.426c0.817-4.353 1.224-8.566 1.224-12.646 0-4.353-0.408-8.637-1.224-12.849h-42.426v-38.755h54.868c0.817-4.079 1.223-8.229 1.223-12.442 0-4.488-0.406-8.771-1.223-12.85zM357.23 480v0 0zM365.594 376.262h95.373l-103.738 103.738v-95.37c0-4.62 3.741-8.368 8.365-8.368z" />
<glyph unicode="&#xe60e;" glyph-name="documento" d="M272.522 252.579c-3.946 3.805-8.466 6.492-13.564 8.057-5.099 1.562-10.505 2.345-16.216 2.345-1.906 0-4.114-0.035-6.629-0.102-2.518-0.070-4.726-0.239-6.63-0.51v-99.131c1.224-0.137 2.785-0.274 4.691-0.407 1.903-0.137 4.214-0.204 6.935-0.204 6.253 0 12.066 0.714 17.44 2.142 5.37 1.427 10.026 4.045 13.971 7.853 3.942 3.805 7.070 8.905 9.383 15.298 2.31 6.389 3.468 14.615 3.468 24.68 0 9.791-1.156 17.949-3.468 24.476-2.313 6.528-5.44 11.694-9.382 15.502zM365.594 355.762c-15.916 0-28.865 12.95-28.865 28.868v95.37h-260.604c-4.619 0-25.094-1.671-25.094-25.094v-461.809c0-4.62 1.67-25.097 25.094-25.097h359.741c23.423 0 25.1 20.478 25.1 25.097v362.665h-95.373zM296.591 155.285c-13.599-12.104-33.793-18.154-60.58-18.154-6.935 0-13.328 0.24-19.173 0.714-5.848 0.478-11.626 1.055-17.338 1.734v146.656c5.711 0.679 11.693 1.256 17.948 1.734 6.253 0.475 13.188 0.714 20.805 0.714 25.7 0 45.246-6.394 58.642-19.173 13.391-12.783 20.091-31.957 20.091-57.521 0-25.7-6.8-44.603-20.396-56.703zM357.23 480v0 0zM365.594 376.262h95.373l-103.738 103.738v-95.37c0-4.62 3.741-8.368 8.365-8.368z" />
<glyph unicode="&#xe60f;" glyph-name="cifras" d="M365.594 355.762c-15.916 0-28.865 12.95-28.865 28.868v95.37h-260.604c-4.619 0-25.094-1.671-25.094-25.094v-461.809c0-4.62 1.67-25.097 25.094-25.097h359.741c23.423 0 25.1 20.478 25.1 25.097v362.665h-95.373zM292.002 138.356c-5.644-0.816-11.728-1.224-18.255-1.224-11.56 0-21.691 1.871-30.392 5.61-8.703 3.738-16.011 8.974-21.927 15.705-5.915 6.732-10.37 14.719-13.361 23.967-2.993 9.245-4.488 19.307-4.488 30.188 0 10.877 1.561 20.974 4.691 30.29 3.126 9.313 7.649 17.369 13.564 24.171 5.916 6.798 13.189 12.101 21.825 15.91 8.635 3.805 18.459 5.711 29.474 5.711 6.527 0 12.544-0.408 18.052-1.224s11.454-2.518 17.848-5.099c-0.274-4.080-1.091-8.057-2.448-11.933-1.361-3.875-2.856-7.786-4.488-11.729-4.761 1.632-8.974 2.785-12.647 3.468-3.671 0.679-8.024 1.020-13.053 1.020-13.055 0-23.084-4.252-30.087-12.748-7.005-8.5-10.505-21.111-10.505-37.837 0-33.18 14.074-49.769 42.223-49.769 5.029 0 9.449 0.338 13.258 1.019 3.805 0.678 8.089 1.836 12.851 3.467 1.765-3.808 3.228-7.719 4.385-11.728 1.154-4.012 2.005-8.056 2.55-12.135-7.072-2.586-13.429-4.284-19.070-5.1zM357.23 480v0 0zM365.594 376.262h95.373l-103.738 103.738v-95.37c0-4.62 3.741-8.368 8.365-8.368z" />
<glyph unicode="&#xe610;" glyph-name="lupa" d="M343.769 167.945c19.623 26.203 31.392 58.625 31.392 93.887 0 86.704-70.291 156.995-156.995 156.995s-156.995-70.291-156.995-156.995c0-86.703 70.293-156.995 156.995-156.995 35.263 0 67.692 11.769 93.887 31.385l107.058-107.051 31.714 31.714-107.058 107.058zM218.167 149.693c-61.94 0-112.138 50.208-112.138 112.139 0 61.925 50.2 112.139 112.138 112.139s112.139-50.215 112.139-112.139c0-61.932-50.2-112.139-112.139-112.139z" />
<glyph unicode="&#xe611;" glyph-name="responde" horiz-adv-x="655" d="M510.2 241v-184.7l-130.050 130.050 63.35 63.65c0 11.6 0.35 22 0.35 28.65l-147.45-147.7c-8.8-8.8-24.2-8.8-33.050 0l-193.5 193.45 254.5 1.7c-4.35 8.25-6.8 10.85-7.25 18.3h-287.6v-320.5h500.75v188c-4.050 5.9-20.050 29.1-20.050 29.1zM49.55 316.4l130.050-130.050-130.050-130.050v260.1zM65.5 43.95l128.25 128.25 55.45-55.45c8.2-8.2 19.1-12.7 30.7-12.7s22.5 4.5 30.7 12.7l55.4 55.45 128.25-128.25h-428.75zM562.1 254.050c0.6 5.8 5.9 10.3 11.7 10.25h39.1c5.8 0 6.3 2.3 1.15 5l-35.7 18.25c-5.15 2.65-8.4 9.45-7.15 15.15l3.45 15.65c1.25 5.7-2 8.2-7.2 5.6l-21-10.5c-5.2-2.6-13.7-2.6-18.85 0.050l-30.5 15.6c-5.2 2.65-7.3 0.55-4.65-4.6l10.65-21.1c2.6-5.2 0.55-11.6-4.65-14.25l-38.95-19.95c-5.2-2.65-4.65-4.8 1.15-4.8l51.7-0.050c5.8 0 12.75-4.2 15.4-9.4l23.6-46.050c2.65-5.15 5.35-4.65 5.95 1.1l4.8 44.050zM459.45 348.6c-4.85 2.5-6.25 8.15-3.050 12.55l7.4 10.25c3.2 4.4 1.5 6.8-3.75 5.35l-26.25-7.45c-5.25-1.5-13.5-0.7-18.35 1.8l-23.1 11.85c-4.85 2.5-7.65 0.2-6.3-5.050l3-11.3c1.4-5.3-1.75-10.85-6.95-12.4l-45.1-13.3c-5.25-1.55-5.050-3 0.4-3.25l50.5-2.2c5.45-0.25 11.050-4.75 12.5-10l6.3-23.6c1.4-5.25 5.050-5.85 8.050-1.3l16.3 24.5c3 4.55 9.95 8.050 15.4 7.8l38.7-1.85c5.45-0.25 5.9 1.55 1.1 4.050l-26.8 13.55zM381.4 385.85c3.6-0.3 3.9 0.75 0.7 2.4l-25.3 12.8c-3.2 1.6-3.45 4.7-0.55 6.85l15.35 11.2c2.9 2.1 2.4 3.4-1.2 2.8l-34.55-5.7c-3.55-0.6-9.1 0.3-12.3 1.95l-22.35 11.5c-3.2 1.65-5.85 0.050-5.9-3.55l-0.1-10c0-3.6-2.95-7.050-6.5-7.65l-53.5-9c-3.55-0.6-3.5-1.35 0.1-1.6l53.2-4.3c3.6-0.3 6.55-3.5 6.55-7.1v-18.65c0-3.6 2.35-4.75 5.2-2.55l26.8 20.8c2.85 2.2 8.15 3.75 11.7 3.45l42.65-3.65zM533.2 320.65c2-3.5 4.7-3.2 5.95 0.6l6.4 19c1.25 3.8 5.6 6.7 9.6 6.4l33.25-2.4c4-0.3 4.3 0.85 0.7 2.6l-28.7 13.7c-3.6 1.7-5.45 6.2-4.050 9.95l3.4 9.2c1.4 3.75-0.6 5.8-4.4 4.6l-19.15-6.3c-3.85-1.25-9.9-0.85-13.5 0.85l-25.65 12.25c-3.65 1.75-4.95 0.3-2.9-3.15l7.9-13.55c2-3.45 0.55-7.3-3.25-8.55l-31.55-10.35c-3.8-1.25-3.65-2.5 0.3-2.75l41.8-2.9c4-0.25 8.9-3.35 10.9-6.8l12.95-22.4zM367.35 407c-3.8-0.75-3.8-1.65 0.1-2l40.8-3.75c3.85-0.35 8.1-3.65 9.45-7.35l5.2-14.75c1.3-3.7 4.45-4.25 7-1.3l12.050 13.9c2.55 2.95 7.8 5.050 11.7 4.65l33.55-3.4c3.9-0.4 4.2 0.65 0.65 2.35l-23.5 11.35c-3.5 1.7-4.3 5.5-1.75 8.45l5.9 6.8c2.55 2.95 1.55 4.75-2.3 4l-23.2-4.45c-3.85-0.75-9.8 0.050-13.3 1.8l-21.35 10.4c-3.5 1.7-5.3 0.1-3.95-3.55l3-8.3c1.35-3.65-0.7-7.25-4.55-8l-35.5-6.85z" />
<glyph unicode="&#xe612;" glyph-name="descarga" d="M139.014 229.040l116.986-116.987 116.988 116.987-16.277 16.276-89.202-89.201v323.885h-23.019v-323.885l-89.202 89.202zM451.668 341.881v-350.862h-391.336v350.862h-23.020v-373.882h437.375v373.882z" />
<glyph unicode="&#xe613;" glyph-name="link" d="M417.715-10.858h-396.571v396.572h198.286v21.142h-219.43v-438.856h438.858v219.429h-21.142zM490.858 480h-234.858v-21.142h219.908l-245.668-245.668 14.951-14.95 245.667 245.668v-219.908h21.142v256z" />
<glyph unicode="&#xe614;" glyph-name="desplegable" d="M352.646 267.542l-96.646-112.753-96.645 112.752h193.29z" />
<glyph unicode="&#xe615;" glyph-name="menu" d="M63.8 368.15h384.401v-64.066h-384.401v64.067zM63.8 256.034h384.401v-64.067h-384.401v64.067zM63.8 143.917h384.401v-64.067h-384.401v64.067z" />
<glyph unicode="&#xe616;" glyph-name="impresora" d="M97.521 480h316.942v-97.52h-316.942v97.52zM121.901 187.438h268.183v-219.423h-268.183v219.423zM0 358.099v-316.942h96.2l1.32 170.661h316.942l0.392-170.661h97.128v316.942h-511.983zM73.141 260.578h-24.38v24.38h24.38v-24.38zM121.901 260.578h-24.38v24.38h24.38v-24.38z" />
<glyph unicode="&#xe617;" glyph-name="compartir" d="M397.999 316.751c-24.022 0-45.5 11.091-59.999 28.545l-151-89.863c3.908-9.682 6.091-20.296 6.091-31.433 0-12.386-2.751-24.091-7.547-34.591l150.093-89.682c14.5 19.159 37 31.522 62.363 31.522 43.683 0 79.092-36.545 79.092-81.636 0-45.068-35.409-81.614-79.092-81.614-43.681 0-79.091 36.546-79.091 81.614 0 8.273 1.228 16.228 3.409 23.727l-153.636 91.796c-14.183-14.069-33.454-22.75-54.682-22.75-43.681 0-79.091 36.546-79.091 81.614s35.409 81.614 79.091 81.614c22.5 0 42.773-9.75 57.182-25.341l152.41 90.704c-2.977 8.568-4.683 17.773-4.683 27.409 0 45.069 35.409 81.613 79.090 81.613 43.683 0 79.092-36.545 79.092-81.614 0-45.090-35.409-81.635-79.092-81.635z" />
<glyph unicode="&#xe618;" glyph-name="agenda" d="M0 480v-512h512v512h-512zM490.667-10.666h-469.333v341.333h469.333v-341.333zM490.667 352h-469.333v106.667h469.333v-106.667zM170.667 416h21.333v-21.333h-21.333v21.333zM320 416h21.334v-21.333h-21.334v21.333zM180.167 219.897v-118.334h22.333v167.292h-19.083l-0.5-3.417c-3.813-25.958-16.167-26.416-41-27.291l-3.855-0.167v-18.083h42.105zM308.167 118.229c-20.083 0-34.542 13.542-35.125 32.979l-0.125 3.875h-22.313l0.105-4.104c0.708-31.583 23.333-52.833 56.333-52.833 33.25 0 59.292 25.458 59.292 57.938 0 35.333-23.105 59.063-57.48 59.063-9.917 0-20.105-3.229-28.188-8.667l7.604 39.125h70.313v21.208h-86.959l-16.958-90.604h19.292l1.166 1.853c6.75 10.5 19.063 17.042 32.125 17.042 21.292 0 36.75-15.75 36.75-37.417 0-19.625-12.312-39.457-35.832-39.457z" />
<glyph unicode="&#xe619;" glyph-name="concursos" d="M364.407 374.615h94.344l-102.617 102.616v-94.339c0-4.569 3.702-8.277 8.274-8.277zM339.74 382.892v94.339h-261.668c-4.57 0-24.823-1.652-24.823-24.822v-456.814c0-4.57 1.653-24.825 24.823-24.825h355.849c23.17 0 24.829 20.256 24.829 24.825v362.625h-94.344c-13.602 0-24.668 11.068-24.668 24.672zM365.962 109.239h-219.925v7.299h219.925v-7.299zM365.962 163.771h-219.925v7.299h219.925v-7.299zM365.962 218.303h-219.925v7.298h219.925v-7.298zM365.962 272.835h-219.925v7.299h219.925v-7.299z" />
<glyph unicode="&#xe61a;" glyph-name="expedientes" d="M364.407 374.615h94.344l-102.617 102.616v-94.339c0-4.569 3.702-8.277 8.274-8.277zM259.031 246.612c-10.636 0-18.714-2.98-24.24-8.93-5.532-5.956-8.826-14.353-9.887-25.198h64.429c-0.428 10.207-3.245 18.445-8.452 24.719-5.214 6.269-12.495 9.409-21.849 9.409zM339.74 382.892v94.339h-261.668c-4.57 0-24.823-1.652-24.823-24.822v-456.814c0-4.57 1.653-24.825 24.823-24.825h355.849c23.17 0 24.829 20.256 24.829 24.825v362.625h-94.344c-13.602 0-24.668 11.068-24.668 24.672zM331.593 190.317c-0.32-3.937-0.693-7.072-1.116-9.409h-105.894c0.847-12.759 5.313-22.009 13.396-27.75 8.078-5.741 18.709-8.612 31.895-8.612 7.226 0 14.617 0.688 22.168 2.073 7.546 1.381 14.721 3.349 21.53 5.901 2.337-4.256 4.356-9.36 6.060-15.31 1.699-5.955 2.656-12.334 2.87-19.137-16.586-6.379-35.3-9.569-56.136-9.569-15.31 0-28.442 2.128-39.391 6.38-10.954 4.251-19.886 10.152-26.792 17.702-6.912 7.545-12.016 16.531-15.31 26.952-3.299 10.416-4.944 21.793-4.944 34.128 0 12.12 1.7 23.493 5.103 34.128 3.399 10.631 8.452 19.88 15.15 27.75 6.698 7.864 14.99 14.084 24.879 18.659 9.887 4.57 21.42 6.858 34.607 6.858 11.483 0 21.689-2.023 30.62-6.060 8.931-4.041 16.531-9.568 22.805-16.585 6.269-7.017 11.004-15.364 14.194-25.038 3.19-9.678 4.784-20.045 4.784-31.098 0-4.042-0.16-8.029-0.478-11.961z" />
<glyph unicode="&#xe61b;" glyph-name="compras" d="M364.407 374.615h94.344l-102.617 102.616v-94.339c0-4.569 3.702-8.277 8.274-8.277zM339.74 382.892v94.339h-261.668c-4.57 0-24.823-1.652-24.823-24.822v-456.814c0-4.57 1.653-24.825 24.823-24.825h355.849c23.17 0 24.829 20.256 24.829 24.825v362.625h-94.344c-13.602 0-24.668 11.068-24.668 24.672zM195.989 110.385h-29.782v84.259h29.782v-84.259zM242.317 110.385h-29.782v136.833h29.781v-136.833zM288.644 110.385h-29.782v169.305h29.782v-169.305zM335.957 110.385h-29.782v105.626h29.782v-105.626z" />
<glyph unicode="&#xe61c;" glyph-name="envivo" d="M256 469.526c-135.601 0-245.526-109.926-245.526-245.526s109.926-245.526 245.526-245.526 245.526 109.926 245.526 245.526c0 135.601-109.926 245.526-245.526 245.526zM219.892 111.535v220.671l110.338-110.335-110.338-110.337z" />
<glyph unicode="&#xe61d;" glyph-name="lluviasol" d="M379.425 278.69c-4.774 0-9.376-0.674-13.86-1.642 0.803 4.318 1.349 8.723 1.349 13.277 0 40.745-33.039 73.775-73.795 73.775-28.748 0-53.584-16.483-65.753-40.474-12.276 7.315-26.542 11.629-41.88 11.629-40.933 0-74.802-29.893-81.207-69.011-26.949-8.401-46.514-33.542-46.514-63.243 0-36.582 29.652-66.229 66.229-66.229 4.827 0 9.515 0.534 14.042 1.52 9.649-24.638 33.58-42.127 61.643-42.127 23.070 0 43.357 11.815 55.21 29.7 12.673-10.049 28.673-16.096 46.097-16.096 27.794 0 51.994 15.295 64.731 37.899 4.431-0.931 9.012-1.434 13.711-1.434 36.571 0 66.229 29.659 66.229 66.219 0 36.582-29.659 66.239-66.229 66.239zM379.425 168.151c-3.050 0-6.154 0.332-9.204 0.964l-15.712 3.308-7.889-13.989c-9.289-16.493-26.779-26.747-45.637-26.747-11.88 0-23.119 3.928-32.483 11.356l-18.697 14.822-13.185-19.885c-8.257-12.459-22.065-19.897-36.941-19.897-18.34 0-34.522 11.067-41.233 28.201l-6.813 17.392-18.26-3.971c-3.104-0.675-6.261-1.017-9.38-1.017-24.434 0-44.31 19.875-44.31 44.31 0 19.505 12.507 36.513 31.118 42.32l12.918 4.025 2.188 13.357c4.806 29.342 29.86 50.635 59.578 50.635 18.869 0 36.336-8.648 47.917-23.733l11.42-14.861 16.455 8.963c6.541 3.569 13.668 5.378 21.18 5.378 18.173 0 34.773-11.436 41.313-28.454l9.558-24.895 22.572 14.203c7.106 4.469 15.241 6.833 23.526 6.833 24.434 0 44.31-19.881 44.31-44.32 0-24.423-19.875-44.298-44.31-44.298zM89.746 15.829c-6.288-6.293-6.282-16.482 0-22.776 6.278-6.282 16.477-6.271 22.755 0 6.283 6.293 60.182 81.438 63.97 86.746-5.298-3.799-80.448-57.699-86.725-63.97zM159.284 16.953c-7.423-7.416-7.406-19.435 0-26.842 7.406-7.428 19.436-7.428 26.833 0 7.411 7.406 70.972 96.025 75.439 102.288-6.244-4.485-94.864-68.028-102.271-75.445zM243.745 31.123c-5.549-5.543-5.544-14.523 0-20.089 5.544-5.545 14.539-5.534 20.067 0 5.555 5.565 53.106 71.858 56.447 76.535-4.688-3.349-70.971-50.902-76.514-56.447zM65.356 64.901c-3.918-3.927-3.918-10.275 0-14.191 3.918-3.907 10.263-3.907 14.175 0 3.918 3.918 37.492 50.721 39.846 54.038-3.302-2.365-50.106-35.94-54.023-39.846zM314.352 13.238c3.918-3.918 10.264-3.918 14.182 0 3.918 3.906 37.492 50.721 39.846 54.027-3.307-2.365-50.11-35.94-54.028-39.846-3.918-3.928-3.918-10.275 0-14.182zM311.493 397.791c4.026-0.642 7.813 2.087 8.445 6.111l8.113 51.020c0.632 4.025-2.108 7.791-6.132 8.444-4.025 0.631-7.802-2.108-8.445-6.132l-8.102-51.009c-0.641-4.025 2.099-7.802 6.123-8.434zM248.775 396.475c1.466-3.811 5.737-5.716 9.542-4.26 3.795 1.466 5.7 5.726 4.244 9.525l-18.478 48.238c-1.456 3.799-5.732 5.705-9.531 4.249-3.804-1.455-5.709-5.726-4.26-9.525l18.483-48.227zM204.653 359.721c3.164-2.57 7.819-2.077 10.387 1.091 2.558 3.156 2.077 7.813-1.097 10.37l-40.113 32.525c-3.164 2.558-7.813 2.077-10.376-1.081-2.57-3.168-2.082-7.813 1.071-10.382l40.13-32.526zM453.745 356.5c-1.445 3.81-5.716 5.704-9.515 4.249l-48.227-18.484c-3.811-1.476-5.716-5.736-4.26-9.547 1.476-3.8 5.726-5.705 9.547-4.238l48.195 18.474c3.82 1.466 5.726 5.737 4.26 9.547zM370.724 377.103l32.503 40.103c2.579 3.168 2.087 7.834-1.081 10.382-3.156 2.569-7.802 2.076-10.371-1.071l-32.525-40.114c-2.558-3.189-2.065-7.835 1.081-10.403 3.18-2.558 7.813-2.077 10.394 1.103z" />
<glyph unicode="&#xe61e;" glyph-name="footeryoutube" d="M217.28 407.935h-25.316l-17.095-53.99-17.774 53.989h-26.337c5.27-12.742 10.78-25.553 16.052-38.313 8.033-19.175 13.032-33.639 15.302-43.517v-55.696h25.041v55.696l30.127 81.829zM284.199 303.587v35.91c0 10.95-2.272 18.952-7.010 24.136-6.243 6.995-15.014 10.507-26.34 10.507-11.257 0-20.043-3.512-26.304-10.507-4.794-5.184-7.062-13.186-7.062-24.136v-35.91c0-10.882 2.268-18.951 7.062-24.102 6.261-6.979 15.046-10.491 26.303-10.491 11.327 0 20.098 3.512 26.341 10.491 4.738 5.151 7.010 13.22 7.010 24.103zM261.613 300.091c0-9.466-3.495-14.226-10.764-14.226-7.299 0-10.781 4.76-10.781 14.226v43.124c0 9.483 3.482 14.21 10.781 14.21 7.269 0 10.764-4.726 10.764-14.21v-43.124zM367.717 270.409v102.487h-22.601v-78.333c-4.982-5.815-9.74-8.699-14.264-8.699-3.017 0-4.774 1.483-5.288 4.367-0.272 0.597-0.272 2.866-0.272 7.216v75.448h-22.514v-81.027c0-7.233 0.764-12.146 2.010-15.25 2.255-5.185 7.267-7.625 14.535-7.625 8.238 0 16.815 4.127 25.793 12.606v-11.19h22.601zM379.829 166.37c-7.456 0-11.207-4.711-11.207-14.074v-9.384h22.347v9.384c0 9.363-3.736 14.074-11.139 14.074zM434.466 217.918c-4.538 16.156-20.606 28.097-39.965 29.87-45.856 4.214-92.269 4.232-138.467 4.214-46.194 0.018-92.591 0-138.446-4.214-19.362-1.773-35.447-13.714-39.951-29.87-6.451-23.043-6.518-48.173-6.518-71.883s0-48.855 6.433-71.883c4.519-16.175 20.588-28.096 39.951-29.87 45.852-4.215 92.269-4.233 138.463-4.215 46.196-0.017 92.594 0 138.448 4.215 19.358 1.774 35.448 13.696 39.967 29.87 6.449 23.028 6.5 48.173 6.5 71.883s0.017 48.84-6.414 71.883zM176.576 197.192h-26.764v-116.949h-24.856v116.949h-26.288v19.174h77.908v-19.174zM244.095 80.243h-22.364v11.068c-8.873-8.377-17.316-12.452-25.537-12.452-7.199 0-12.144 2.404-14.398 7.541-1.229 3.072-1.962 7.916-1.962 15.081v80.193h22.33v-74.668c0-4.298 0-6.549 0.203-7.147 0.548-2.847 2.253-4.298 5.238-4.298 4.487 0 9.16 2.848 14.125 8.597v77.515h22.364v-101.43zM328.978 110.69c0-9.382-0.769-16.137-2.252-20.435-2.987-7.558-8.96-11.397-17.881-11.397-7.929 0-15.606 3.635-23.060 11.224v-9.84h-22.347v136.123h22.347v-44.469c7.197 7.317 14.857 11.001 23.060 11.001 8.921 0 14.894-3.837 17.881-11.447 1.483-4.075 2.252-10.781 2.252-20.385v-40.377zM413.314 127.611h-44.692v-17.978c0-9.382 3.752-14.072 11.411-14.072 5.508 0 8.719 2.454 9.977 7.366 0.207 1.007 0.498 5.082 0.498 12.455h22.806v-2.698c0-5.901-0.272-9.977-0.478-11.822-0.75-4.075-2.524-7.758-5.219-11.016-6.193-7.353-15.35-10.988-27.020-10.988-11.7 0-20.591 3.465-27.055 10.39-4.743 5.067-7.164 13.068-7.164 23.847v35.515c0 10.849 2.149 18.765 6.892 23.899 6.447 6.945 15.353 10.388 26.764 10.388 11.207 0 20.111-3.443 26.358-10.388 4.671-5.135 6.923-13.051 6.923-23.899v-20.998zM296.908 166.37c-3.669 0-7.404-1.452-11.123-4.469v-61.822c3.719-3.069 7.454-4.519 11.123-4.519 6.447 0 9.721 4.519 9.721 13.678v43.278c0 9.142-3.273 13.853-9.721 13.853z" />
<glyph unicode="&#xe61f;" glyph-name="footertwitter" d="M478.582 362.062c-16.378-7.264-33.981-12.173-52.454-14.381 18.854 11.303 33.337 29.201 40.156 50.529-17.648-10.466-37.193-18.067-57.998-22.162-16.659 17.75-40.395 28.84-66.663 28.84-50.438 0-91.331-40.891-91.331-91.329 0-7.158 0.806-14.129 2.365-20.813-75.904 3.808-143.202 40.169-188.248 95.425-7.862-13.489-12.366-29.177-12.366-45.916 0-31.685 16.122-59.64 40.63-76.019-14.97 0.476-29.055 4.584-41.367 11.425-0.008-0.382-0.008-0.763-0.008-1.15 0-44.249 31.483-81.16 73.26-89.554-7.662-2.087-15.731-3.204-24.060-3.204-5.885 0-11.605 0.574-17.183 1.639 11.62-36.282 45.351-62.688 85.316-63.423-31.257-24.497-70.637-39.099-113.427-39.099-7.371 0-14.642 0.435-21.787 1.279 40.417-25.914 88.424-41.034 140-41.034 167.991 0 259.856 139.167 259.856 259.856 0 3.961-0.089 7.899-0.264 11.816 17.846 12.876 33.328 28.962 45.572 47.277z" />
<glyph unicode="&#xe620;" glyph-name="footertumblr" d="M206.248 394.185v-79.72h79.692v-61.519h-79.692v-88.378c0-19.997-0.257-31.519 1.862-37.19 2.103-5.639 7.377-11.492 13.124-14.877 7.636-4.574 16.339-6.86 26.154-6.86 17.455 0 34.815 5.671 52.072 17.007v-54.352c-14.709-6.927-28.063-11.797-39.998-14.603-11.953-2.774-24.864-4.18-38.733-4.18-15.76 0-25.056 1.983-37.162 5.946-12.101 3.995-22.438 9.692-30.972 17.012-8.565 7.375-14.481 15.214-17.787 23.505-3.309 8.294-4.951 20.333-4.951 36.096v120.872h-46.828v48.809c13.535 4.391 29.234 10.699 38.868 18.899 9.676 8.23 17.42 18.079 23.26 29.603 5.852 11.492 9.876 26.156 12.071 43.928h49.019zM422.098 88.901c0-23.262-18.863-42.128-42.127-42.128s-42.129 18.865-42.129 42.128c0 23.267 18.863 42.128 42.129 42.128s42.127-18.861 42.127-42.128z" />
<glyph unicode="&#xe621;" glyph-name="footerfacebook" d="M335.325 284.14h-54.032v35.461c0 13.29 8.817 16.397 15.033 16.397 6.19 0 38.113 0 38.113 0v58.488l-52.498 0.221c-58.29 0-71.563-43.63-71.563-71.559v-39.009h-33.702v-60.262h33.702c0-77.365 0-170.586 0-170.586h70.914c0 0 0 94.135 0 170.586h47.842l6.19 60.263z" />
<glyph unicode="&#xe622;" glyph-name="footerg" d="M429.571 345.736h-47.238v47.239h-23.619v-47.239h-47.238v-23.62h47.238v-47.238h23.619v47.238h47.238zM261.873 198.901c-9.493 7.123-30.145 21.719-30.145 31.516 0 11.486 3.28 17.143 20.56 30.641 17.715 13.845 30.256 32.089 30.256 54.726 0 24.661-10.086 47.034-29.050 57.902h26.876l22.885 24.014c0 0-75.616 0-102.395 0-51.962 0-95.26-38.313-95.26-80.458 0-43.069 28.453-77.395 77.311-77.395 3.402 0 6.697 0.175 9.934 0.406-3.175-6.082-5.44-12.851-5.44-19.957 0-11.966 6.583-18.796 14.721-26.712-6.149 0-12.085-0.165-18.574-0.165-59.48 0-101.123-40.937-101.123-80.232 0-38.687 50.194-62.886 109.683-62.886 67.815 0 109.523 38.483 109.523 77.178 0 31.021-6.69 46.623-39.76 71.423zM202.696 255.495c-27.601 0.828-53.825 26.147-58.592 62.385-4.763 36.25 13.745 63.987 41.34 63.166 27.588-0.828 51.196-30.563 55.957-66.805 4.76-36.243-11.117-59.568-38.704-58.746zM191.889 67.408c-41.118 0-70.813 26.025-70.813 57.296 0 30.639 34.844 57.073 75.959 56.621 9.59-0.099 18.532-1.643 26.649-4.274 22.326-15.515 40.327-25.216 44.853-42.901 0.844-3.58 1.308-7.271 1.308-11.044 0-31.267-20.149-55.697-77.957-55.697z" />
<glyph unicode="&#xe623;" glyph-name="footerfoursquare" d="M237.735 219.191c-2.366 2.928-1.936 7.214 0.983 9.584 0.056 0.057 0.132 0.101 0.206 0.147-0.998 3.837-2.335 7.609-4.026 11.268-0.298-1.474-1.067-2.846-2.313-3.867-2.929-2.381-7.219-1.941-9.585 0.971-2.379 2.918-1.936 7.194 0.982 9.573 1.951 1.591 4.508 1.889 6.706 1.047-1.707 2.696-3.619 5.305-5.751 7.8-1.486 1.737-3.054 3.383-4.689 4.945 0.342-2.286-0.463-4.688-2.398-6.261-2.91-2.375-7.2-1.925-9.563 0.978-2.386 2.913-1.945 7.194 0.96 9.573 1.206 0.973 2.643 1.446 4.080 1.487-3.208 2.334-6.608 4.375-10.158 6.102-0.019-0.018-0.034-0.036-0.054-0.053-2.906-2.365-7.187-1.941-9.566 0.971-0.79 0.981-1.251 2.139-1.425 3.302-1.916 0.545-3.857 1.010-5.823 1.385 0.349-2.298-0.473-4.7-2.393-6.273-2.929-2.376-7.19-1.93-9.576 0.983-1.536 1.883-1.868 4.341-1.137 6.487-2.181-0.013-4.354-0.133-6.51-0.356 1.037-2.688 0.347-5.81-2.007-7.713-2.91-2.375-7.2-1.95-9.576 0.963-0.972 1.207-1.431 2.636-1.485 4.069-2.005-0.623-3.979-1.338-5.917-2.144-0.349-1.33-1.089-2.57-2.243-3.512-1.973-1.599-4.545-1.886-6.731-1.037-3.148-1.902-6.153-4.065-8.978-6.483-1.998-1.708-3.877-3.517-5.641-5.412 0.392-2.313-0.404-4.771-2.383-6.374-1.147-0.94-2.528-1.413-3.91-1.493-1.184-1.732-2.283-3.516-3.296-5.346 1.392-0.331 2.702-1.089 3.712-2.279 2.344-2.928 1.924-7.214-1.001-9.573-2.335-1.928-5.538-1.976-7.972-0.412-0.651-2.068-1.204-4.174-1.656-6.312 2.248 0.294 4.594-0.537 6.115-2.414 2.376-2.918 1.933-7.208-0.972-9.569-1.922-1.56-4.445-1.877-6.615-1.079-0.034-2.003 0.017-3.995 0.158-5.974 1.103-0.399 2.141-1.080 2.933-2.079 2.389-2.909 1.947-7.188-0.982-9.564-0.023-0.019-0.048-0.034-0.072-0.049 0.972-3.846 2.287-7.595 3.93-11.212 0.325 1.403 1.082 2.742 2.296 3.721 2.897 2.37 7.2 1.92 9.563-0.978 2.357-2.923 1.936-7.194-0.983-9.58-1.933-1.575-4.463-1.868-6.641-1.056 1.778-2.837 3.777-5.563 5.993-8.154 1.396-1.632 2.865-3.184 4.394-4.662-0.37 2.317 0.437 4.75 2.394 6.337 2.909 2.385 7.186 1.94 9.554-0.978 2.376-2.904 1.946-7.2-0.96-9.558-1.264-1.026-2.79-1.488-4.274-1.495 3.215-2.385 6.626-4.474 10.194-6.244 0.066 0.067 0.131 0.134 0.203 0.199 2.906 2.376 7.196 1.93 9.582-0.983 0.859-1.070 1.333-2.317 1.479-3.588 1.911-0.551 3.85-1.022 5.811-1.404-0.458 2.385 0.333 4.939 2.355 6.589 2.919 2.36 7.19 1.93 9.554-0.983 1.629-1.994 1.911-4.613 1.003-6.854 0.013 0 0.028 0 0.041 0 2.261 0 4.512 0.12 6.745 0.346-1.244 2.762-0.577 6.099 1.886 8.102 2.909 2.37 7.19 1.93 9.553-0.979 1.078-1.324 1.557-2.928 1.496-4.518 1.961 0.599 3.896 1.283 5.794 2.057 0.29 1.536 1.056 2.982 2.376 4.048 2.119 1.728 4.976 1.949 7.279 0.821 3.063 1.866 5.989 3.981 8.746 6.336 1.916 1.64 3.712 3.37 5.398 5.171-0.639 2.501 0.155 5.251 2.288 6.99 1.324 1.065 2.916 1.539 4.462 1.495 1.144 1.706 2.2 3.456 3.174 5.243-1.57 0.273-3.024 1.061-4.121 2.385-2.375 2.913-1.935 7.204 0.993 9.569 2.458 2 5.845 1.984 8.285 0.214 0.673 2.156 1.24 4.341 1.694 6.546-2.341-0.426-4.862 0.392-6.476 2.374-2.376 2.918-1.924 7.193 0.983 9.563 2.008 1.635 4.661 1.906 6.888 0.986 0.024 1.99-0.043 3.982-0.194 5.97-1.203 0.392-2.316 1.124-3.169 2.163zM204.762 246.252c2.9 2.364 7.209 1.935 9.585-0.994 2.341-2.904 1.924-7.184-1.004-9.558-2.906-2.38-7.186-1.945-9.563 0.983-2.385 2.913-1.936 7.188 0.982 9.569zM199.286 217.978c-2.375 2.913-1.915 7.199 0.974 9.573 2.918 2.375 7.2 1.935 9.562-0.983 2.386-2.914 1.936-7.203-0.985-9.557-2.893-2.37-7.197-1.946-9.55 0.967zM204.363 198.308c-2.918-2.386-7.196-1.941-9.572 0.983-2.385 2.903-1.946 7.188 0.974 9.558 2.905 2.37 7.186 1.935 9.569-0.973 2.369-2.923 1.939-7.209-0.97-9.568zM190.022 264.34c2.929 2.365 7.219 1.945 9.59-0.972 2.366-2.929 1.927-7.198-0.992-9.578-2.91-2.37-7.187-1.941-9.562 0.971-2.376 2.919-1.937 7.214 0.964 9.578zM185.555 245.643c2.909 2.36 7.186 1.92 9.553-0.988 2.353-2.913 1.933-7.183-0.973-9.569-2.919-2.37-7.209-1.93-9.572 0.988-2.389 2.904-1.94 7.188 0.992 9.569zM180.066 217.363c-2.373 2.923-1.933 7.202 0.985 9.572 2.906 2.371 7.187 1.941 9.563-0.977 2.375-2.914 1.933-7.193-0.999-9.569-2.893-2.38-7.184-1.934-9.55 0.974zM185.157 197.688c-2.929-2.37-7.209-1.93-9.587 0.983-2.375 2.918-1.923 7.187 0.974 9.569 2.92 2.37 7.187 1.935 9.572-0.988 2.367-2.908 1.928-7.188-0.959-9.564zM170.821 263.726c2.919 2.371 7.19 1.94 9.573-0.993 2.355-2.909 1.925-7.188-0.994-9.548-2.906-2.37-7.206-1.941-9.572 0.962-2.365 2.923-1.923 7.204 0.993 9.579zM166.317 245.034c2.918 2.364 7.186 1.929 9.572-0.999 2.353-2.913 1.924-7.184-0.974-9.558-2.938-2.37-7.205-1.936-9.572 0.977-2.379 2.918-1.936 7.208 0.974 9.578zM160.827 216.759c-2.354 2.913-1.933 7.192 1.004 9.572 2.919 2.37 7.186 1.926 9.543-0.983 2.386-2.908 1.956-7.203-0.964-9.569-2.909-2.375-7.2-1.93-9.585 0.978zM165.918 197.079c-2.92-2.376-7.21-1.925-9.576 0.968-2.363 2.923-1.933 7.208 0.995 9.579 2.906 2.365 7.186 1.93 9.56-0.988 2.369-2.908 1.939-7.183-0.98-9.558zM151.601 263.122c2.909 2.365 7.19 1.93 9.543-0.983 2.388-2.918 1.959-7.194-0.96-9.569-2.912-2.37-7.2-1.94-9.575 0.968-2.364 2.913-1.915 7.203 0.992 9.584zM147.108 244.405c2.906 2.381 7.178 1.946 9.541-0.972 2.394-2.919 1.952-7.199-0.952-9.569-2.928-2.37-7.209-1.935-9.595 0.983-2.357 2.919-1.927 7.194 1.004 9.558zM141.619 216.154c-2.375 2.908-1.946 7.193 0.973 9.553 2.919 2.38 7.209 1.94 9.582-0.972 2.357-2.913 1.928-7.208-0.982-9.569-2.919-2.37-7.197-1.94-9.572 0.988zM146.688 196.459c-2.928-2.37-7.186-1.93-9.576 0.984-2.373 2.923-1.933 7.204 0.995 9.569 2.897 2.375 7.196 1.935 9.57-0.971 2.361-2.92 1.93-7.199-0.988-9.58zM132.365 262.512c2.928 2.356 7.206 1.93 9.572-0.988 2.365-2.918 1.956-7.198-0.972-9.564-2.919-2.38-7.196-1.935-9.563 0.978-2.376 2.898-1.936 7.187 0.964 9.573zM127.867 243.796c2.919 2.38 7.199 1.94 9.586-0.973 2.363-2.912 1.923-7.198-1.005-9.569-2.897-2.37-7.196-1.929-9.541 0.983-2.388 2.904-1.95 7.192 0.96 9.558zM123.373 225.109c2.919 2.364 7.2 1.914 9.575-0.978 2.373-2.923 1.924-7.198-0.986-9.573-2.928-2.375-7.197-1.945-9.551 0.978-2.388 2.909-1.958 7.194 0.961 9.574zM127.478 195.851c-2.928-2.365-7.206-1.93-9.572 0.978-2.376 2.928-1.936 7.218 0.951 9.573 2.919 2.37 7.209 1.945 9.581-0.978 2.37-2.919 1.95-7.204-0.96-9.573zM142.181 177.774c-2.916-2.376-7.19-1.941-9.563 0.978-2.377 2.918-1.924 7.192 0.995 9.569 2.906 2.375 7.178 1.93 9.553-0.973 2.395-2.928 1.934-7.202-0.984-9.572zM156.907 159.676c-2.891-2.376-7.19-1.925-9.554 0.983-2.375 2.918-1.946 7.198 0.98 9.578 2.912 2.375 7.2 1.93 9.556-0.983 2.377-2.923 1.937-7.199-0.982-9.579zM161.421 178.382c-2.929-2.37-7.207-1.93-9.563 0.968-2.376 2.923-1.933 7.204 0.972 9.578 2.909 2.365 7.178 1.936 9.554-0.967 2.377-2.923 1.946-7.219-0.963-9.579zM176.137 160.3c-2.899-2.386-7.2-1.945-9.553 0.983-2.376 2.898-1.936 7.188 0.969 9.563 2.922 2.365 7.197 1.94 9.566-0.978 2.375-2.918 1.932-7.203-0.983-9.569zM180.631 179.002c-2.897-2.38-7.18-1.94-9.575 0.972-2.354 2.913-1.915 7.204 1.004 9.574 2.916 2.365 7.187 1.925 9.563-0.993 2.365-2.903 1.928-7.202-0.993-9.553zM195.354 160.899c-2.887-2.365-7.178-1.93-9.564 0.988-2.363 2.908-1.923 7.199 0.974 9.563 2.928 2.38 7.205 1.936 9.572-0.978 2.376-2.918 1.936-7.187-0.982-9.574zM199.861 179.616c-2.92-2.38-7.203-1.95-9.576 0.963-2.363 2.923-1.924 7.203 0.995 9.569 2.897 2.385 7.178 1.926 9.572-0.978 2.375-2.919 1.904-7.188-0.992-9.554zM214.603 161.524c-2.94-2.371-7.217-1.93-9.584 0.983-2.376 2.904-1.946 7.194 0.969 9.554 2.922 2.385 7.2 1.945 9.576-0.963 2.365-2.928 1.936-7.208-0.962-9.573zM219.089 180.216c-2.941-2.375-7.209-1.935-9.585 0.978-2.366 2.923-1.914 7.199 0.972 9.578 2.929 2.371 7.219 1.93 9.572-0.983 2.388-2.918 1.946-7.204-0.96-9.574zM223.584 198.913c-2.919-2.37-7.2-1.935-9.594 0.978-2.354 2.918-1.915 7.204 1.004 9.563 2.906 2.385 7.197 1.941 9.559-0.978 2.379-2.908 1.936-7.188-0.97-9.563zM228.064 217.619c-2.905-2.38-7.184-1.94-9.549 0.978-2.385 2.913-1.946 7.187 0.972 9.569 2.906 2.376 7.187 1.926 9.572-0.983 2.367-2.913 1.937-7.193-0.996-9.564zM511.966 479.75l-178.033-248.533-38.598 38.602c-8.745 8.734-22.911 8.734-31.656 0l-14.964-14.966c-1.424 2.476-2.978 4.908-4.675 7.281-27.791 38.904-81.829 47.904-120.718 20.115-38.898-27.794-47.89-81.852-20.121-120.74 13.275-18.564 32.52-30.293 53.243-34.466l107.236-107.23c8.745-8.748 22.911-8.748 31.656 0l109.175 109.166c8.731 8.745 8.731 22.916 0 31.654l-5.406 5.407 112.895 94.762-0.034 218.947zM281.844 81.479c-4.404-3.558-8.364 0.128-8.364 0.128l-72.115 58.007c-8.784-3.374-18.172-5.152-27.706-5.152-22.66 0-44.099 9.87-58.802 27.077-13.436 15.702-19.957 35.693-18.35 56.294 1.61 20.607 11.141 39.349 26.849 52.778 13.986 11.979 31.834 18.583 50.243 18.583 22.656 0 44.089-9.87 58.821-27.077 19.928-23.305 23.559-55.159 11.976-81.529 15.387-20.183 27.248-35.715 27.845-36.421 1.773-2.089 6.227-5.058 11.283 0.574l217.666 298.834v-177l-219.344-185.097z" />
<glyph unicode="&#xe624;" glyph-name="footerinstagram" d="M118.359 409.186h275.284c26.152 0 47.535-21.391 47.535-47.546v-275.289c0-26.143-21.383-47.537-47.535-47.537h-275.284c-26.148 0-47.538 21.394-47.538 47.537v275.289c0 26.155 21.391 47.546 47.538 47.546v0zM340.615 368.036c-9.177 0-16.668-7.503-16.668-16.677v-39.911c0-9.17 7.491-16.673 16.668-16.673h41.863c9.177 0 16.676 7.503 16.676 16.673v39.911c0 9.174-7.499 16.677-16.676 16.677h-41.863zM399.329 252.56h-32.598c3.080-10.070 4.745-20.739 4.745-31.782 0-61.601-51.542-111.535-115.121-111.535-63.581 0-115.118 49.933-115.118 111.535 0 11.043 1.662 21.713 4.746 31.782h-34.012v-156.448c0-8.1 6.627-14.725 14.723-14.725h257.906c8.103 0 14.728 6.625 14.728 14.725v156.448zM256.356 296.876c-41.081 0-74.382-32.267-74.382-72.068 0-39.81 33.302-72.078 74.382-72.078 41.083 0 74.382 32.268 74.382 72.078 0 39.801-33.299 72.069-74.382 72.069z" />
<glyph unicode="&#xe625;" glyph-name="footerlinkedin" d="M76.135 357.673v-1.784c0-18.745 9.662-31.544 29-38.386l9.821-1.34h8.037c18.752 0 31.692 10.264 38.833 30.8l0.887 8.926c0 19.038-10.258 31.983-30.789 38.831l-13.388 1.333c-20.239 0-33.931-9.668-41.075-29.015l-1.328-9.364zM81.031 284.028h76.323v-232.081h-76.323v232.081zM277.868 251.893h-0.891v32.135h-76.32v-232.081h76.32v119.615c0 22.907 3.571 36.748 10.709 41.506 8.63 10.411 18.302 15.62 29.010 15.62h5.348c17.278 0 28.866-10.265 34.834-30.801 1.185-8.034 1.768-15.168 1.768-21.419v-124.521h77.221v127.201c0 56.231-18.603 91.192-55.79 104.88-12.497 3.576-24.111 5.361-34.819 5.361-27.66 0-50.137-12.501-67.389-37.496z" />
<glyph unicode="&#xe626;" glyph-name="footerstorify" d="M242.048 403.219c-113.311 0-170.499-95.652-170.499-164.268s48.351-140.865 119.569-140.865c42.097 0 60.293 22.868 60.293 46.262 0 62.382-82.656 66.013-82.656 149.712 0 83.689 79.016 98.243 79.016 98.243l-5.722 10.916zM269.948 44.781c113.329 0 170.504 95.642 170.504 164.259 0 68.618-48.34 140.863-119.559 140.863-42.094 0-60.294-22.868-60.294-46.251 0-62.382 82.648-66.023 82.648-149.71 0-83.698-79.007-98.245-79.007-98.245l5.707-10.916z" />
<glyph unicode="&#xe627;" glyph-name="intranet" d="M407.178 411.466c-50.988 0-92.304-41.326-92.304-92.3 0-11.591 2.142-22.68 6.040-32.901h-243.948v-16.111h251.982c16.325-26.009 45.252-43.3 78.231-43.3 50.986 0 92.304 41.326 92.304 92.313 0 50.974-41.318 92.3-92.304 92.3zM407.178 234.548c-22.965 0-43.813 9.206-59.075 24.113 8.662 3.536 25.93 9.697 37.267 13.048 6.601 2.077 6.601 7.631 6.601 12.095 0 3.702-0.252 9.154-2.415 13.772-1.488 3.146-3.187 8.563-3.564 12.808-0.079 0.991-0.543 1.911-1.298 2.564-1.087 0.957-3.313 4.449-4.712 11.49-1.116 5.577-0.654 6.801-0.189 7.981 0.189 0.507 0.377 0.999 0.527 1.553 0.928 3.383-0.103 14.471-1.22 20.619-0.488 2.678 0.127 10.279 5.13 16.678 4.485 5.728 11.274 8.933 19.935 9.48l7.293 0.008c8.897-0.555 15.686-3.76 20.178-9.488 5.003-6.399 5.618-14 5.123-16.678-1.111-6.148-2.149-17.236-1.219-20.611 0.156-0.563 0.337-1.054 0.527-1.562 0.457-1.18 0.935-2.404-0.182-7.981-1.407-7.042-3.634-10.534-4.719-11.49-0.74-0.653-1.212-1.573-1.298-2.564-0.37-4.245-2.070-9.661-3.556-12.808-1.707-3.635-3.658-8.454-3.658-13.618 0-4.462 0-10.007 6.656-12.115 10.857-3.205 28.203-9.165 37.368-12.763-15.303-15.156-36.331-24.53-59.499-24.53zM399.208 213.617v-160.972h-370.577v257.788h273.034c-0.237 2.887-0.441 5.782-0.441 8.733 0 2.489 0.204 4.932 0.37 7.378h-289.075v-290.011h402.801v177.095c-2.697-0.209-5.396-0.413-8.142-0.413-2.691 0-5.327 0.204-7.971 0.401zM44.742 286.265h16.111v-16.111h-16.111v16.111z" />
<glyph unicode="&#xe628;" glyph-name="tramites" d="M402.307 303.841c-11.268 0-22.058-2.034-32.031-5.748v121.991h0.202c-0.072 0.938-0.139 1.877-0.202 2.819v10.381c0.063 0.94 0.131 1.878 0.202 2.815h-0.202v0.204c-0.966-0.071-1.932-0.14-2.901-0.204h-10.214c-0.968 0.064-1.934 0.132-2.9 0.204v-0.204h-200.19l-136.129-136.097v-288.305h352.334v114.39c9.972-3.714 20.762-5.748 32.031-5.748 50.673 0 91.752 41.070 91.752 91.76 0 50.665-41.079 91.743-91.751 91.743zM154.071 413.453v-105.475h-105.475l105.475 105.475zM354.261 27.713h-320.304v264.25h136.13v128.122h184.175v-129.813c-26.23-16.149-43.714-45.119-43.714-78.174 0-33.072 17.485-62.043 43.714-78.191v-106.195zM436.605 161.442l-22.819-10.245-17.939 39.945-23.334-10.486-0.132 93.245 69.612-62.035-23.326-10.479 17.939-39.944z" />
<glyph unicode="&#xe629;" glyph-name="flechadesp" d="M328.070 224.001l-85.332 113.778h-45.806l85.333-113.778-85.333-113.779h45.806l85.332 113.779z" />
<glyph unicode="&#xe62a;" glyph-name="flechadown" d="M262.5 158.43l113.778 85.332v45.806l-113.778-85.332-113.779 85.333v-45.806l113.779-85.333z" />
<glyph unicode="&#xe62b;" glyph-name="flechaup" d="M262.5 289.57l-113.778-85.332v-45.806l113.778 85.332 113.779-85.333v45.807l-113.779 85.332z" />
<glyph unicode="&#xe62c;" glyph-name="link2" d="M287.526 288.634c-4.778 3.071-10.323 3.881-15.485 2.773-5.077-1.152-9.771-4.224-12.8-8.959-3.070-4.778-3.881-10.325-2.771-15.444 1.151-5.12 4.181-9.812 8.959-12.841 19.75-12.671 31.526-34.173 31.526-57.466 0-18.259-7.082-35.366-19.967-48.25l-81.911-81.911c-12.924-12.928-30.075-20.010-48.292-20.010-37.628 0-68.259 30.631-68.259 68.259 0 18.26 7.082 35.368 19.967 48.252l38.863 38.865c4.095 4.096 6.102 9.514 6.017 14.846-0.086 5.119-2.091 10.198-6.017 14.121-4.010 4.010-9.256 6.014-14.461 6.014-5.248 0-10.495-2.005-14.461-6.014l-38.867-38.864c-20.648-20.606-31.996-48.036-31.996-77.219 0-60.238 48.975-109.214 109.215-109.214 29.18 0 56.612 11.351 77.219 31.996l81.91 81.911c20.647 20.606 31.996 48.039 31.996 77.219 0 37.33-18.814 71.672-50.385 91.937zM365.215 442.429c-29.18 0-56.613-11.348-77.219-31.996l-81.911-81.911c-20.648-20.607-31.996-48.037-31.996-77.219 0-37.328 18.814-71.715 50.385-91.935 4.778-3.072 10.323-3.883 15.485-2.731 5.077 1.108 9.771 4.18 12.8 8.915 3.070 4.779 3.881 10.325 2.771 15.444-1.15 5.12-4.181 9.812-8.959 12.843-19.709 12.669-31.526 34.171-31.526 57.464 0 18.261 7.082 35.368 19.967 48.251l81.911 81.911c12.925 12.927 30.075 20.008 48.293 20.008 37.628 0 68.259-30.631 68.259-68.259 0-18.216-7.081-35.366-19.967-48.25l-38.863-38.867c-4.096-4.095-6.102-9.47-6.017-14.845 0.086-5.119 2.091-10.196 6.017-14.079 3.967-4.010 9.256-6.014 14.462-6.014 5.248 0 10.494 2.005 14.461 6.014l38.866 38.865c20.647 20.564 31.996 47.996 31.996 77.176 0 60.196-48.975 109.214-109.214 109.214z" />
<glyph unicode="&#xe62d;" glyph-name="tramite-1" d="M374.901 304.134v115.95h0.202c-0.072 0.938-0.139 1.877-0.202 2.819v10.38c0.063 0.94 0.131 1.878 0.202 2.815h-0.202v0.204c-0.966-0.072-1.932-0.14-2.901-0.204h-10.214c-0.968 0.063-1.933 0.132-2.9 0.204v-0.204h-175.189l-136.129-136.097v-288.304h327.334v109.906c47.281 3.573 84.533 43.070 84.533 91.266s-37.252 87.692-84.533 91.265zM183.696 413.453v-105.475h-105.475l105.475 105.475zM358.885 27.713h-295.304v264.25h136.13v128.122h159.174v-116.129c-46.317-4.531-82.51-43.581-82.51-91.087s36.195-86.557 82.51-91.087v-94.068zM405.323 161.762l-22.82-10.245-17.938 39.945-23.335-10.487-0.132 93.245 69.612-62.034-23.325-10.479 17.938-39.943z" />
<glyph unicode="&#xe62e;" glyph-name="tramite-2" d="M419.565 420.084h0.202c-0.073 0.938-0.139 1.877-0.202 2.819v10.38c0.063 0.94 0.131 1.878 0.202 2.815h-0.202v0.204c-0.966-0.072-1.932-0.14-2.901-0.204h-10.214c-0.968 0.064-1.933 0.132-2.9 0.204v-0.204h-175.189l-136.129-136.097v-288.304h327.334zM228.361 413.453v-105.475h-105.475l105.475 105.475zM403.55 27.713h-295.304v264.25h136.13v128.122h159.175z" />
<glyph unicode="&#xe62f;" glyph-name="flechaizq" d="M196.93 224l85.332-113.778h45.806l-85.332 113.778 85.333 113.779h-45.807l-85.332-113.779z" />
<glyph unicode="&#xe900;" d="M363.28 362.096h74.352l-84.976 84.976v-74.352c0-5.312 4.256-10.624 10.624-10.624z" />
<glyph unicode="&#xe901;" d="M331.424 362.096v84.976h-233.696c-4.256 0-21.248-1.056-21.248-21.248v-403.648c0-4.256 1.056-21.248 21.248-21.248h318.672c20.176 0 21.248 16.992 21.248 21.248v318.672h-84.976c-11.68 0-21.248 9.568-21.248 21.248z" />
<glyph unicode="&#xe902;" d="M291.056 240.992c-11.68 10.624-28.688 16.992-50.992 16.992-6.368 0-12.752 0-18.064-1.056-5.312 0-10.624-1.056-15.936-1.056v-127.472c5.312-1.056 9.568-1.056 14.864-1.056s10.624-1.056 16.992-1.056c23.376 0 41.424 5.312 53.104 15.936s18.064 26.56 18.064 49.92c-1.056 21.248-6.368 38.24-18.064 48.864zM278.304 169.824c-2.128-5.312-5.312-9.568-8.496-12.752s-7.44-5.312-11.68-6.368c-4.256-1.056-9.568-2.128-14.864-2.128-2.128 0-4.256 0-6.368 0s-3.184 0-4.256 0v87.104c2.128 0 3.184 0 5.312 0s4.256 0 5.312 0c5.312 0 9.568-1.056 13.808-2.128s8.496-3.184 11.68-7.44c3.184-3.184 6.368-7.44 8.496-13.808 2.128-5.312 3.184-12.752 3.184-21.248s-1.056-14.864-2.128-21.248z" />
<glyph unicode="&#xe903;" glyph-name="facebook-2" d="M256.016 480c-141.376 0-256.016-114.624-256.016-256s114.64-256 256.016-256 256 114.624 256 256c0 141.408-114.624 256-256 256zM322.208 224.032l-41.952-0.032-0.032-153.6h-57.568v153.6h-38.368v52.928l38.368 0.032-0.048 31.184c0 43.2 11.696 69.472 62.576 69.472h42.368v-52.96h-26.496c-19.808 0-20.768-7.392-20.768-21.184l-0.064-26.496h47.616l-5.616-52.928z" />
<glyph unicode="&#xe904;" glyph-name="twitter-2" d="M256.016 480c-141.376 0-256.016-114.624-256.016-256.016 0-141.376 114.64-255.984 256.016-255.984s255.984 114.624 255.984 255.984c0 141.424-114.624 256.016-255.984 256.016zM383.36 281.472l0.192-8.16c0-83.328-63.392-179.328-179.328-179.328-35.568 0-68.688 10.432-96.608 28.336 4.928-0.592 9.968-0.912 15.040-0.912 29.52 0 56.72 10.080 78.272 26.976-27.584 0.512-50.816 18.752-58.864 43.776 3.872-0.736 7.76-1.088 11.856-1.088 5.776 0 11.328 0.752 16.608 2.192-28.832 5.824-50.56 31.248-50.56 61.792v0.8c8.528-4.736 18.176-7.568 28.528-7.904-16.864 11.296-28.016 30.592-28.016 52.448 0 11.552 3.12 22.368 8.512 31.68 31.072-38.144 77.536-63.232 129.92-65.856-1.088 4.608-1.616 9.44-1.616 14.368 0 34.784 28.224 63.008 63.040 63.008 18.112 0 34.496-7.632 46.016-19.904 14.336 2.848 27.824 8.096 40.032 15.296-4.704-14.704-14.688-27.072-27.712-34.88 12.704 1.52 24.88 4.928 36.16 9.936-8.464-12.608-19.168-23.712-31.504-32.544z" />
<glyph unicode="&#xe905;" glyph-name="youtube-2" d="M209.344 167.888c38.432 19.92 76.496 39.664 114.944 59.6-38.56 20.112-76.624 39.952-114.944 59.952v-119.536zM256.016 480c-141.376 0-256.016-114.608-256.016-256.016 0-141.376 114.624-255.984 256.016-255.984s255.984 114.608 255.984 255.984-114.624 256.016-255.984 256.016zM430.432 138.544c-4.432-19.232-20.144-33.408-39.072-35.504-44.832-5.008-90.16-5.056-135.36-5.008-45.168-0.032-90.544 0-135.376 5.008-18.928 2.096-34.64 16.288-39.056 35.504-6.304 27.392-6.304 57.264-6.304 85.44 0 28.192 0.096 58.080 6.368 85.456 4.432 19.216 20.16 33.408 39.056 35.52 44.832 4.992 90.208 5.040 135.376 4.992 45.168 0.032 90.544 0 135.36-4.992 18.928-2.112 34.64-16.304 39.072-35.52 6.304-27.392 6.256-57.264 6.256-85.456 0-28.176-0.016-58.048-6.32-85.44z" />
</font>
</defs>
</svg>
