<?xml version="1.0" standalone="no"?>
<!DOCTYPE svg PUBLIC "-//W3C//DTD SVG 1.1//EN" "http://www.w3.org/Graphics/SVG/1.1/DTD/svg11.dtd">
<svg xmlns="http://www.w3.org/2000/svg">
<metadata>Copyright (C) 2016 by original authors @ fontello.com</metadata>
<defs>
<font id="icons" horiz-adv-x="1000" >
<font-face font-family="icons" font-weight="400" font-stretch="normal" units-per-em="1000" ascent="850" descent="-150" />
<missing-glyph horiz-adv-x="1000" />
<glyph glyph-name="lupa" unicode="&#xe800;" d="M671 241c39 51 62 114 62 183 0 169-138 307-307 307s-306-138-306-307c0-169 137-307 306-307 69 0 132 23 184 62l209-210 62 62-210 210z m-245-36c-121 0-219 98-219 219 0 121 98 219 219 219s219-98 219-219c0-121-98-219-219-219z" horiz-adv-x="1000" />
<glyph glyph-name="menu" unicode="&#xe801;" d="M125 632h750v-126h-750v126z m0-219h750v-126h-750v126z m0-219h750v-125h-750v125z" horiz-adv-x="1000" />
<glyph glyph-name="camara" unicode="&#xe802;" d="M365 273c0-138 112-250 250-250s250 112 250 250-111 250-250 250-250-112-250-250z m789 423h-269c-20 77-39 154-116 154h-307c-77 0-97-77-116-154h-269c-42 0-77-34-77-77v-692c0-42 35-77 77-77h1077c42 0 77 35 77 77v692c0 43-35 77-77 77z m-539-764c-188 0-341 153-341 341 0 189 153 341 341 341s342-152 342-341c0-188-153-341-342-341z m539 533h-154v77h154v-77z" horiz-adv-x="1231" />
<glyph glyph-name="facebook" unicode="&#xe803;" d="M500 850c-276 0-500-224-500-500s224-500 500-500 500 224 500 500c0 276-224 500-500 500z m129-500l-82 0 0-300h-112v300h-75v103l75 0 0 61c0 85 23 136 122 136h83v-103h-52c-39 0-41-15-41-42l0-52h93l-11-103z" horiz-adv-x="1000" />
<glyph glyph-name="doc" unicode="&#xe804;" d="M819 584q8-7 16-20h-264v264q13-8 21-16z m-265-91h303v-589q0-23-15-38t-38-16h-750q-23 0-38 16t-16 38v892q0 23 16 38t38 16h446v-304q0-22 16-38t38-15z m89-411v36q0 8-5 13t-13 5h-393q-8 0-13-5t-5-13v-36q0-8 5-13t13-5h393q8 0 13 5t5 13z m0 143v36q0 7-5 12t-13 5h-393q-8 0-13-5t-5-12v-36q0-8 5-13t13-5h393q8 0 13 5t5 13z m0 143v35q0 8-5 13t-13 5h-393q-8 0-13-5t-5-13v-35q0-8 5-13t13-5h393q8 0 13 5t5 13z" horiz-adv-x="857.1" />
<glyph glyph-name="twitter" unicode="&#xe805;" d="M500 850c-276 0-500-224-500-500s224-500 500-500 500 224 500 500c0 276-224 500-500 500z m249-388l0-16c0-162-124-350-350-350-70 0-134 20-189 55 10-1 20-1 30-1 57 0 110 19 153 52-54 1-100 37-115 86 7-2 15-2 23-2 11 0 22 1 32 4-56 11-99 61-99 121v1c17-9 36-14 56-15-33 22-55 60-55 102 0 23 6 44 17 62 61-74 151-123 254-129-2 9-3 19-3 29 0 67 55 123 123 123 35 0 67-15 90-39 28 5 54 16 78 30-9-29-29-53-54-69 24 3 48 10 70 20-16-25-37-46-61-64z" horiz-adv-x="1000" />
<glyph glyph-name="play" unicode="&#xe806;" d="M500 850c-276 0-500-224-500-500 0-276 224-500 500-500 276 0 500 224 500 500 0 276-224 500-500 500z m239-540l-298-205c-8-6-18-9-28-9-7 0-15 2-22 6-16 8-26 25-26 43v410c0 18 10 35 26 43 16 9 35 8 50-3l298-205c14-9 21-24 21-40 0-16-7-31-21-40z" horiz-adv-x="1000" />
<glyph glyph-name="audio" unicode="&#xe807;" d="M532 850h-94l-281-312h-94c-34 0-63-28-63-63v-250c0-34 29-62 63-62h94l281-313h94c17 0 31 14 31 31v938c-1 17-14 31-31 31z m205-367c-22 27-61 31-88 10-27-22-31-61-9-88 23-29 23-81 0-110-22-26-18-66 9-87 11-9 25-14 39-14 19 0 37 8 49 23 60 75 60 191 0 266z m151 96c-12 13-29 21-47 21-19 0-36-6-49-19-26-26-27-69-1-96 72-74 72-196 0-270-26-27-25-70 1-96 13-12 30-19 47-19 19 0 36 8 49 21 122 126 122 332 0 458z" horiz-adv-x="980" />
<glyph glyph-name="link-ext" unicode="&#xe808;" d="M786 332v-178q0-67-47-114t-114-47h-464q-67 0-114 47t-47 114v464q0 66 47 113t114 48h393q7 0 12-5t5-13v-36q0-8-5-13t-12-5h-393q-37 0-63-26t-27-63v-464q0-37 27-63t63-27h464q37 0 63 27t26 63v178q0 8 5 13t13 5h36q8 0 13-5t5-13z m214 482v-285q0-15-11-26t-25-10-25 10l-98 99-364-364q-5-6-13-6t-13 6l-63 63q-6 6-6 13t6 13l364 364-99 98q-10 11-10 25t10 25 26 11h285q15 0 25-11t11-25z" horiz-adv-x="1000" />
<glyph glyph-name="footertwitter" unicode="&#xe809;" d="M935 620c-32-14-67-24-103-28 37 22 65 57 79 98-35-20-73-35-114-43-32 35-78 56-130 56-98 0-178-80-178-178 0-14 1-28 5-41-149 8-280 79-368 187-16-27-24-57-24-90 0-62 31-116 79-148-29 0-57 8-81 22 0-1 0-2 0-2 0-87 62-159 143-175-15-4-30-7-47-7-11 0-22 2-33 4 22-71 88-123 166-124-61-48-138-77-221-77-15 0-29 1-43 3 79-51 173-80 274-80 328 0 507 272 507 507 0 8 0 16 0 23 35 26 65 57 89 93z" horiz-adv-x="1000" />
<glyph glyph-name="footertumblr" unicode="&#xe80a;" d="M403 682v-155h156v-120h-156v-173c0-39-1-62 4-73 4-11 14-22 25-29 15-9 32-13 51-13 34 0 68 11 102 33v-106c-29-14-55-23-78-29-24-5-49-8-76-8-31 0-49 4-72 12-24 8-44 19-61 33-17 14-28 30-35 46-6 16-9 40-9 71v236h-92v95c27 8 57 21 76 37 19 16 34 35 46 58 11 22 19 51 23 85h96z m421-596c0-45-36-82-82-82s-82 37-82 82c0 46 37 82 82 82s82-36 82-82z" horiz-adv-x="1000" />
<glyph glyph-name="footerg" unicode="&#xe80b;" d="M839 588h-92v92h-46v-92h-93v-46h93v-93h46v93h92z m-327-287c-19 14-59 42-59 62 0 22 6 33 40 59 34 27 59 63 59 107 0 48-20 92-57 113h53l44 47c0 0-147 0-200 0-101 0-186-75-186-157 0-84 56-151 151-151 7 0 13 0 20 1-7-12-11-25-11-39 0-24 13-37 29-52-12 0-24-1-36-1-117 0-198-80-198-156 0-76 98-123 214-123 133 0 214 75 214 151 0 60-13 91-77 139z m-116 111c-54 1-105 51-114 121-10 71 26 125 80 124 54-2 100-60 110-131 9-70-22-116-76-114z m-21-368c-80 0-138 51-138 112 0 60 68 112 148 111 19 0 36-4 52-9 44-30 79-49 88-83 1-7 2-15 2-22 0-61-39-109-152-109z" horiz-adv-x="1000" />
<glyph glyph-name="footerfacebook" unicode="&#xe80c;" d="M655 468h-106v69c0 26 18 32 30 32 12 0 74 0 74 0v114l-102 0c-114 0-140-85-140-139v-76h-66v-118h66c0-151 0-333 0-333h138c0 0 0 183 0 333h94l12 118z" horiz-adv-x="1000" />
<glyph glyph-name="footerfoursquare" unicode="&#xe80d;" d="M464 341c-4 5-3 14 2 18 0 0 1 1 1 1-2 7-5 15-8 22-1-3-2-6-5-8-5-5-14-4-18 2-5 6-4 14 2 19 3 3 8 3 13 2-4 5-7 10-12 15-3 3-6 7-9 10 1-5-1-10-4-13-6-4-15-3-19 2-5 6-4 14 2 19 2 2 5 3 8 3-7 4-13 8-20 12 0 0 0 0 0 0-6-5-14-4-19 2-1 2-2 4-3 6-3 1-7 2-11 3 1-5-1-9-5-12-5-5-14-4-18 1-3 4-4 9-3 13-4 0-8 0-12-1 2-5 0-11-4-15-6-4-14-3-19 2-2 3-3 5-3 8-4-1-8-2-11-4-1-3-3-5-5-7-4-3-9-4-13-2-6-4-12-8-18-13-3-3-7-6-11-10 1-5 0-9-4-13-2-1-5-2-8-2-2-4-4-7-6-11 2-1 5-2 7-4 5-6 4-14-2-19-5-4-11-4-16-1-1-4-2-8-3-12 5 0 9-1 12-5 5-6 4-14-2-19-4-3-8-3-13-2 0-4 0-8 1-11 2-1 4-2 5-4 5-6 4-14-2-19 0 0 0 0 0 0 2-8 5-15 8-22 1 3 2 5 4 7 6 5 15 4 19-2 5-5 4-14-2-18-4-4-8-4-13-3 4-5 8-10 12-15 3-4 6-7 9-10-1 5 0 10 4 13 6 4 14 4 19-2 5-6 4-14-2-19-2-2-5-3-8-3 6-4 13-8 20-12 0 0 0 0 0 1 6 4 14 3 19-2 1-2 2-5 3-7 3-1 7-2 11-3-1 5 1 9 5 13 5 4 14 3 18-2 3-4 4-9 2-14 0 0 0 0 0 0 5 0 9 1 13 1-2 5-1 12 4 16 6 5 14 4 19-2 2-3 3-6 3-9 3 1 7 3 11 4 1 3 2 6 5 8 4 3 9 4 14 2 6 3 12 7 17 12 4 3 7 7 10 10-1 5 1 10 5 14 3 2 6 3 9 3 2 3 4 7 6 10-3 1-6 2-8 5-5 5-4 14 2 18 5 4 11 4 16 1 1 4 2 8 3 13-4-1-9 0-12 4-5 6-4 14 1 19 4 3 10 4 14 2 0 4 0 8 0 11-3 1-5 3-7 5z m-64 53c6 4 14 3 19-2 4-6 3-14-2-19-6-5-14-4-19 2-5 6-4 14 2 19z m-11-56c-4 6-3 14 2 19 6 5 14 4 19-2 5-6 4-14-2-19-6-4-14-3-19 2z m10-38c-6-5-14-4-18 2-5 5-4 14 1 18 6 5 14 4 19-1 5-6 4-15-2-19z m-28 129c6 4 14 4 19-2 5-6 4-14-2-19-6-4-14-4-19 2-4 6-3 14 2 19z m-9-37c6 5 14 4 19-2 5-5 4-14-2-18-5-5-14-4-18 2-5 5-4 14 1 18z m-10-55c-5 6-4 14 2 19 5 4 14 4 18-2 5-6 4-14-2-19-5-4-14-4-18 2z m10-38c-6-5-14-4-19 2-5 5-4 14 2 18 6 5 14 4 19-2 4-5 3-14-2-18z m-28 129c5 4 14 3 18-2 5-6 4-14-2-19-5-5-14-4-18 2-5 6-4 14 2 19z m-9-37c6 5 14 4 19-2 4-6 3-14-2-18-6-5-14-4-19 1-5 6-4 14 2 19z m-11-55c-4 6-4 14 2 19 6 4 14 3 19-2 4-6 4-14-2-19-6-5-14-4-19 2z m10-39c-6-4-14-3-19 2-4 6-3 14 2 19 6 5 14 4 19-2 5-6 4-14-2-19z m-28 129c6 5 14 4 19-1 4-6 4-15-2-19-6-5-14-4-19 2-4 5-4 14 2 18z m-9-36c6 5 14 4 19-2 5-6 4-14-2-19-6-4-14-3-19 2-4 6-3 14 2 19z m-10-55c-5 5-4 14 2 18 5 5 14 4 18-2 5-5 4-14-2-18-5-5-14-4-18 2z m10-39c-6-4-14-4-19 2-5 6-4 14 2 19 5 5 14 4 18-2 5-6 4-14-1-19z m-28 129c5 5 14 4 18-2 5-5 4-14-2-18-5-5-14-4-18 2-5 5-4 14 2 18z m-9-36c5 4 14 4 19-2 4-6 3-14-2-19-6-5-15-4-19 2-5 6-4 14 2 19z m-9-37c6 5 14 4 19-2 4-5 3-14-2-18-6-5-14-4-19 2-5 5-4 14 2 18z m8-57c-6-5-14-4-19 2-4 6-3 14 2 19 6 4 14 3 19-2 5-6 4-14-2-19z m29-35c-6-5-14-4-19 2-5 5-4 14 2 18 6 5 14 4 19-2 4-5 3-14-2-18z m29-36c-6-4-15-3-19 2-5 6-4 14 2 19 5 5 14 4 18-2 5-6 4-14-1-19z m8 37c-5-5-14-4-18 2-5 6-4 14 2 19 5 4 14 3 18-2 5-6 4-14-2-19z m29-35c-6-5-14-4-19 2-4 5-3 14 2 18 6 5 14 4 19-2 5-5 4-14-2-18z m9 36c-6-4-14-4-19 2-4 6-4 14 2 19 6 4 14 4 19-2 4-6 4-14-2-19z m29-35c-6-5-14-4-19 2-5 5-4 14 2 18 6 5 14 4 19-1 4-6 3-15-2-19z m8 36c-5-4-14-3-18 2-5 6-4 14 2 19 5 5 14 4 18-2 5-6 4-14-2-19z m29-35c-6-5-14-4-19 2-4 6-3 14 2 19 6 4 14 3 19-2 5-6 4-14-2-19z m9 37c-6-5-14-4-19 1-4 6-4 15 2 19 6 5 14 4 19-2 4-5 4-14-2-18z m9 36c-6-5-14-4-19 2-5 6-4 14 2 19 6 4 14 3 19-2 4-6 3-14-2-19z m8 37c-5-5-14-4-18 1-5 6-4 15 2 19 5 5 14 4 18-2 5-5 4-14-2-18z m555 512l-348-486-75 76c-17 17-45 17-62 0l-29-30c-3 5-6 10-9 15-55 76-160 93-236 39-76-54-94-160-39-236 26-36 63-59 104-67l209-210c17-17 45-17 62 0l213 213c17 18 17 45 0 62l-10 11 220 185 0 428z m-449-778c-9-7-17 0-17 0l-141 113c-17-6-35-10-54-10-44 0-86 19-115 53-26 31-39 70-35 110 3 40 21 77 52 103 27 23 62 36 98 36 44 0 86-19 115-53 39-45 46-107 23-159 30-39 54-69 55-71 3-4 12-10 22 1l425 584v-346l-428-361z" horiz-adv-x="1000" />
<glyph glyph-name="footerlinkedin" unicode="&#xe80e;" d="M149 611v-3c0-37 19-62 56-75l20-3h15c37 0 62 20 76 60l2 18c0 37-20 62-60 75l-26 3c-40 0-67-19-81-57l-2-18z m9-144h149v-453h-149v453z m385-62h-2v62h-149v-453h149v234c0 44 7 71 21 81 17 20 36 30 57 30h10c34 0 56-20 68-60 2-16 4-30 4-42v-243h150v248c0 110-36 179-109 205-24 7-47 11-68 11-54 0-98-25-131-73z" horiz-adv-x="1000" />
<glyph glyph-name="footerstorify" unicode="&#xe80f;" d="M473 700c-222 0-333-187-333-321s94-275 233-275c83 0 118 45 118 90 0 122-161 129-161 293 0 163 154 192 154 192l-11 21z m54-700c222 0 333 187 333 321 0 134-94 275-233 275-82 0-118-45-118-90 0-122 161-129 161-293 0-163-154-192-154-192l11-21z" horiz-adv-x="1000" />
<glyph glyph-name="footerinstagram" unicode="&#xe810;" d="M231 712h538c51 0 93-42 93-93v-538c0-51-42-93-93-93h-538c-51 0-93 42-93 93v538c0 51 42 93 93 93v0z m434-81c-18 0-32-14-32-32v-78c0-18 14-33 32-33h82c18 0 33 15 33 33v78c0 18-15 32-33 32h-82z m115-225h-64c6-20 10-41 10-62 0-121-101-218-225-218-124 0-225 97-225 218 0 21 3 42 9 62h-66v-306c0-16 13-28 28-28h504c16 0 29 12 29 28v306z m-279 86c-80 0-146-63-146-140 0-78 66-141 146-141 80 0 145 63 145 141 0 77-65 140-145 140z" horiz-adv-x="1000" />
<glyph glyph-name="footeryoutube" unicode="&#xe811;" d="M424 709h-49l-33-105-35 105h-52c11-25 21-50 32-75 15-37 25-65 30-85v-108h49v108l58 160z m131-204v71c0 21-4 37-14 47-12 13-29 20-51 20-22 0-39-7-51-20-10-10-14-26-14-47v-71c0-21 4-37 14-47 12-13 29-20 51-20 22 0 39 7 51 20 10 10 14 26 14 47z m-44-6c0-19-7-28-21-28-14 0-21 9-21 28v84c0 18 7 28 21 28 14 0 21-10 21-28v-84z m207-58v200h-44v-153c-10-11-19-17-28-17-6 0-9 3-10 8-1 2-1 6-1 15v147h-44v-158c0-15 2-24 4-30 5-10 15-15 29-15 16 0 33 8 50 25v-22h44z m24-204c-15 0-22-9-22-27v-18h44v18c0 18-8 27-22 27z m107 101c-9 32-41 55-78 59-90 8-181 8-271 8-90 0-181 0-270-8-38-4-70-27-78-59-13-45-13-94-13-140s0-96 13-141c8-31 40-54 78-58 89-8 180-8 270-8 90 0 181 0 270 8 38 4 70 27 78 58 13 45 13 94 13 141s0 95-12 140z m-504-40h-52v-229h-49v229h-51v37h152v-37z m132-229h-44v22c-17-16-34-24-50-24-14 0-23 4-28 14-2 6-4 16-4 30v156h44v-145c0-9 0-13 0-14 1-6 5-9 11-9 8 0 17 6 27 17v151h44v-198z m166 60c0-19-2-32-5-40-6-15-17-22-35-22-15 0-30 7-45 21v-19h-43v266h43v-87c14 15 29 22 45 22 18 0 29-8 35-23 3-8 5-21 5-39v-79z m164 33h-87v-35c0-19 7-28 22-28 11 0 17 5 20 15 0 2 1 10 1 24h44v-5c0-12 0-20-1-23-1-8-5-16-10-22-12-14-30-21-53-21-22 0-40 6-52 20-10 10-14 25-14 46v70c0 21 4 36 13 46 13 14 30 21 52 21 22 0 40-7 52-21 9-10 13-25 13-46v-41z m-227 75c-7 0-15-2-22-8v-121c7-6 15-9 22-9 13 0 19 9 19 27v84c0 18-6 27-19 27z" horiz-adv-x="1000" />
<glyph glyph-name="whatsapp" unicode="&#xe812;" d="M1000 363c0-269-220-487-491-487-86 0-167 22-237 60l-272-86 89 261c-45 74-71 160-71 252 0 269 220 487 491 487 271 0 491-218 491-487z m-491 409c-227 0-413-183-413-409 0-90 30-173 79-240l-52-152 159 50c65-43 143-68 227-68 228 0 413 184 413 410s-185 409-413 409z m248-521c-3 5-11 8-23 14-12 6-71 35-82 39-11 4-19 5-27-6-8-12-31-39-38-47-7-8-14-9-27-3-12 6-50 18-96 59-36 32-60 71-67 83-7 12-1 18 5 24 5 5 12 14 18 21 6 7 8 12 12 20 4 8 2 15-1 21-3 6-27 64-37 88-10 24-20 20-27 20-7 0-15 1-23 1s-21-3-32-15c-11-12-42-40-42-99 0-59 43-116 49-124 6-8 83-132 205-180 123-48 123-32 145-30 22 2 71 29 81 57 10 28 10 52 7 57z" horiz-adv-x="1000" />
<glyph glyph-name="download-alt" unicode="&#xe813;" d="M0-150l0 135 1000 0 0-135-1000 0z m88 586l228 0 0 414 370 0 0-414 228 0-414-385z" horiz-adv-x="1000" />
<glyph glyph-name="youtube" unicode="&#xe814;" d="M409 240c75 39 149 78 224 117-75 39-149 78-224 117 0-78 0-155 0-234z m91 610c-276 0-500-224-500-500s224-500 500-500 500 224 500 500-224 500-500 500z m341-667c-9-37-40-65-77-69-87-10-176-10-264-10-88 0-177 0-264 10-37 4-68 32-77 69-12 54-12 112-12 167s0 114 12 167c9 38 40 65 77 69 87 10 176 10 264 10 88 0 177 0 265-10 37-4 67-31 76-69 12-54 12-112 12-167s0-113-12-167z" horiz-adv-x="1000" />
<glyph glyph-name="calendar" unicode="&#xe815;" d="M71-79h161v161h-161v-161z m197 0h178v161h-178v-161z m-197 197h161v178h-161v-178z m197 0h178v178h-178v-178z m-197 214h161v161h-161v-161z m411-411h179v161h-179v-161z m-214 411h178v161h-178v-161z m428-411h161v161h-161v-161z m-214 197h179v178h-179v-178z m-196 482v161q0 7-6 12t-12 6h-36q-7 0-12-6t-6-12v-161q0-7 6-13t12-5h36q7 0 12 5t6 13z m410-482h161v178h-161v-178z m-214 214h179v161h-179v-161z m214 0h161v161h-161v-161z m18 268v161q0 7-5 12t-13 6h-35q-8 0-13-6t-5-12v-161q0-7 5-13t13-5h35q8 0 13 5t5 13z m215 36v-715q0-29-22-50t-50-21h-786q-29 0-50 21t-21 50v715q0 29 21 50t50 21h72v54q0 37 26 63t63 26h36q37 0 63-26t26-63v-54h214v54q0 37 27 63t63 26h35q37 0 63-26t27-63v-54h71q29 0 50-21t22-50z" horiz-adv-x="928.6" />
</font>
</defs>
</svg>
