<?xml version="1.0" encoding="UTF-8" standalone="no"?>
<!-- Generator: Adobe Illustrator 16.0.0, SVG Export Plug-In . SVG Version: 6.00 Build 0)  -->

<svg
   xmlns:dc="http://purl.org/dc/elements/1.1/"
   xmlns:cc="http://creativecommons.org/ns#"
   xmlns:rdf="http://www.w3.org/1999/02/22-rdf-syntax-ns#"
   xmlns:svg="http://www.w3.org/2000/svg"
   xmlns="http://www.w3.org/2000/svg"
   xmlns:sodipodi="http://sodipodi.sourceforge.net/DTD/sodipodi-0.dtd"
   xmlns:inkscape="http://www.inkscape.org/namespaces/inkscape"
   version="1.1"
   id="Capa_1"
   x="0px"
   y="0px"
   width="571.62"
   height="239.746"
   viewBox="0 0 571.61999 239.74599"
   enable-background="new 0 0 841.89 595.28"
   xml:space="preserve"
   inkscape:version="0.91 r13725"
   sodipodi:docname="logo-stg.svg"><metadata
     id="metadata59"><rdf:RDF><cc:Work
         rdf:about=""><dc:format>image/svg+xml</dc:format><dc:type
           rdf:resource="http://purl.org/dc/dcmitype/StillImage" /><dc:title /></cc:Work></rdf:RDF></metadata><defs
     id="defs57" /><sodipodi:namedview
     pagecolor="#ffffff"
     bordercolor="#ff0000"
     borderopacity="0.98823529"
     objecttolerance="10"
     gridtolerance="10"
     guidetolerance="10"
     inkscape:pageopacity="0"
     inkscape:pageshadow="2"
     inkscape:window-width="1280"
     inkscape:window-height="714"
     id="namedview55"
     showgrid="false"
     inkscape:zoom="1.1213358"
     inkscape:cx="326.23007"
     inkscape:cy="117.33938"
     inkscape:window-x="0"
     inkscape:window-y="28"
     inkscape:window-maximized="1"
     inkscape:current-layer="g5"
     fit-margin-top="0"
     fit-margin-left="0"
     fit-margin-right="0"
     fit-margin-bottom="0"
     inkscape:showpageshadow="false" /><g
     id="g3"
     style="fill:#000000"
     transform="translate(-134.848,-177.51501)"><g
       id="g5"
       style="fill:#000000"><path
         d="m 260.158,231.641 c -0.916,-0.885 -2.483,-0.885 -3.395,0 l -31.51,30.491 c -0.473,0.458 -0.743,1.097 -0.743,1.754 V 414.82 c 0,1.344 1.095,2.441 2.44,2.441 h 6.312 c 0.652,0 1.266,-0.254 1.726,-0.716 l 56.702,-56.7 c 0.46,-0.462 0.715,-1.076 0.715,-1.728 v -94.231 c 0,-0.655 -0.271,-1.295 -0.744,-1.754 l -31.503,-30.491 z"
         id="path7"
         style="fill:#000000;fill-opacity:1"
         inkscape:connector-curvature="0" /><path
         d="m 240.058,209.764 -30.489,-31.505 c -0.457,-0.474 -1.096,-0.744 -1.754,-0.744 h -15.312 c -0.652,0 -1.265,0.254 -1.726,0.716 l -55.216,55.213 c -0.46,0.462 -0.713,1.074 -0.713,1.726 v 7.798 c 0,1.345 1.094,2.441 2.442,2.441 h 70.525 c 0.656,0 1.297,-0.272 1.754,-0.745 l 30.489,-31.506 c 0.92,-0.952 0.92,-2.442 0,-3.394 z"
         id="path9"
         style="fill:#000000;fill-opacity:1"
         inkscape:connector-curvature="0" /><path
         d="M 379.628,177.515 H 308.24 c -0.659,0 -1.297,0.27 -1.753,0.744 l -30.489,31.505 c -0.92,0.952 -0.92,2.442 0,3.395 l 30.489,31.506 c 0.457,0.472 1.098,0.744 1.753,0.744 h 17.388 c 0.652,0 1.265,-0.255 1.725,-0.716 l 53.999,-53.998 c 0.462,-0.461 0.715,-1.074 0.715,-1.727 v -9.014 c 0,-1.344 -1.094,-2.439 -2.439,-2.439 z"
         id="path11"
         style="fill:#000000;fill-opacity:1"
         inkscape:connector-curvature="0" /></g><g
       id="g13"
       style="fill:#000000;fill-opacity:1"
       transform="translate(-10.701522,-13.376903)"><g
         id="g15"
         style="fill:#000000;fill-opacity:1"><path
           d="m 381.168,306.753 v -6.631 c 0,-4.829 -1.947,-6.919 -6.486,-6.919 -4.542,0 -6.488,2.09 -6.488,6.919 v 3.532 c 0,3.389 1.154,4.397 4.542,6.271 l 7.208,3.964 c 3.892,2.162 6.486,4.83 6.486,9.083 v 6.703 c 0,7.353 -3.965,10.523 -11.604,10.523 h -0.145 c -7.641,0 -11.605,-3.099 -11.605,-10.523 v -8.361 h 5.117 v 7.207 c 0,4.758 1.946,7.063 6.561,7.063 4.611,0 6.557,-2.306 6.557,-7.063 v -4.036 c 0,-3.388 -1.295,-4.685 -4.756,-6.631 l -7.063,-3.893 c -4.397,-2.45 -6.416,-4.541 -6.416,-8.937 v -6.056 c 0,-7.064 4.613,-10.379 11.533,-10.379 h 0.145 c 6.918,0 11.533,3.315 11.533,10.379 v 7.784 h -5.119 z"
           id="path17"
           style="fill:#000000;fill-opacity:1"
           inkscape:connector-curvature="0" /><path
           d="m 414.178,327.152 h -12.256 l -2.521,12.47 h -5.045 l 10.665,-50.456 h 6.199 l 10.813,50.456 h -5.334 l -2.521,-12.47 z m -0.868,-4.541 -5.258,-26.237 -5.262,26.237 h 10.52 z"
           id="path19"
           style="fill:#000000;fill-opacity:1"
           inkscape:connector-curvature="0" /><path
           d="m 430.341,339.622 v -50.456 h 5.262 l 14.777,38.273 v -38.273 h 4.828 v 50.456 h -4.973 l -15.063,-38.995 v 38.995 h -4.831 z"
           id="path21"
           style="fill:#000000;fill-opacity:1"
           inkscape:connector-curvature="0" /><path
           d="m 488.002,293.852 h -9.229 v 45.771 h -5.189 v -45.771 h -9.153 v -4.686 h 23.571 v 4.686 z"
           id="path23"
           style="fill:#000000;fill-opacity:1"
           inkscape:connector-curvature="0" /><path
           d="m 510.486,327.152 h -12.253 l -2.523,12.47 h -5.045 l 10.668,-50.456 h 6.199 l 10.812,50.456 h -5.334 l -2.524,-12.47 z m -0.864,-4.541 -5.262,-26.237 -5.262,26.237 h 10.524 z"
           id="path25"
           style="fill:#000000;fill-opacity:1"
           inkscape:connector-curvature="0" /><path
           d="m 542.266,289.166 h 20.111 v 4.686 h -14.922 v 18.236 h 12.687 v 4.612 h -12.687 v 22.922 h -5.189 v -50.456 z"
           id="path27"
           style="fill:#000000;fill-opacity:1"
           inkscape:connector-curvature="0" /><path
           d="m 572.033,339.622 v -50.456 h 20.396 v 4.686 h -15.211 v 17.874 h 12.977 v 4.615 h -12.977 v 18.596 h 15.425 v 4.686 h -20.61 z"
           id="path29"
           style="fill:#000000;fill-opacity:1"
           inkscape:connector-curvature="0" /></g><g
         id="g31"
         style="fill:#000000;fill-opacity:1"><path
           d="m 384.34,370.914 h -9.228 v 45.771 h -5.189 v -45.771 h -9.153 v -4.686 h 23.57 v 4.686 z"
           id="path33"
           style="fill:#000000;fill-opacity:1"
           inkscape:connector-curvature="0" /><path
           d="m 393.488,416.685 v -50.456 h 20.4 v 4.686 h -15.211 v 17.875 h 12.976 v 4.614 H 398.677 V 412 h 15.425 v 4.686 h -20.614 z"
           id="path35"
           style="fill:#000000;fill-opacity:1"
           inkscape:connector-curvature="0" /><path
           d="m 447.063,406.593 c 0,7.353 -4.181,10.668 -11.822,10.668 H 435.1 c -7.641,0 -11.821,-3.243 -11.821,-10.668 V 376.32 c 0,-7.063 4.181,-10.665 11.821,-10.665 h 0.142 c 7.642,0 11.822,3.602 11.822,10.665 v 8.795 h -5.189 v -7.497 c 0,-5.189 -1.946,-7.28 -6.702,-7.28 -4.759,0 -6.704,2.091 -6.704,7.28 v 27.679 c 0,5.188 1.945,7.278 6.704,7.278 4.756,0 6.702,-2.09 6.702,-7.278 v -8.721 h 5.189 v 10.017 z"
           id="path37"
           style="fill:#000000;fill-opacity:1"
           inkscape:connector-curvature="0" /><path
           d="m 459.023,416.685 v -50.456 h 5.263 l 14.776,38.273 v -38.273 h 4.828 v 50.456 h -4.973 L 463.851,377.69 v 38.995 h -4.828 z"
           id="path39"
           style="fill:#000000;fill-opacity:1"
           inkscape:connector-curvature="0" /><path
           d="m 507.963,365.654 h 0.574 c 7.642,0 11.822,3.457 11.822,10.665 v 30.273 c 0,7.208 -4.181,10.668 -11.822,10.668 h -0.574 c -7.642,0 -11.822,-3.46 -11.822,-10.668 v -30.273 c 0,-7.28 4.18,-10.665 11.822,-10.665 z m 0.285,46.92 c 4.832,0 6.922,-2.018 6.922,-7.278 v -27.679 c 0,-5.262 -2.09,-7.28 -6.922,-7.28 -4.828,0 -6.918,2.019 -6.918,7.28 v 27.679 c 0,5.261 2.09,7.278 6.918,7.278 z"
           id="path41"
           style="fill:#000000;fill-opacity:1"
           inkscape:connector-curvature="0" /><path
           d="M 552.139,416.685 H 532.61 v -50.456 h 5.187 v 45.698 h 14.343 v 4.758 z"
           id="path43"
           style="fill:#000000;fill-opacity:1"
           inkscape:connector-curvature="0" /><path
           d="m 571.839,365.654 h 0.575 c 7.642,0 11.822,3.457 11.822,10.665 v 30.273 c 0,7.208 -4.181,10.668 -11.822,10.668 h -0.575 c -7.642,0 -11.822,-3.46 -11.822,-10.668 v -30.273 c 0,-7.28 4.18,-10.665 11.822,-10.665 z m 0.286,46.92 c 4.831,0 6.922,-2.018 6.922,-7.278 v -27.679 c 0,-5.262 -2.091,-7.28 -6.922,-7.28 -4.828,0 -6.919,2.019 -6.919,7.28 v 27.679 c 0,5.261 2.091,7.278 6.919,7.278 z"
           id="path45"
           style="fill:#000000;fill-opacity:1"
           inkscape:connector-curvature="0" /><path
           d="m 620.416,406.593 c 0,7.353 -4.181,10.668 -11.822,10.668 h -0.578 c -7.639,0 -11.819,-3.243 -11.819,-10.668 V 376.32 c 0,-7.063 4.181,-10.665 11.819,-10.665 h 0.578 c 7.642,0 11.822,3.602 11.822,10.665 v 6.776 h -5.189 v -5.479 c 0,-5.262 -2.091,-7.28 -6.919,-7.28 -4.831,0 -6.922,2.019 -6.922,7.28 v 27.679 c 0,5.261 2.091,7.278 6.922,7.278 4.828,0 6.919,-2.018 6.919,-7.278 v -9.3 h -7.211 v -4.611 h 12.4 v 15.208 z"
           id="path47"
           style="fill:#000000;fill-opacity:1"
           inkscape:connector-curvature="0" /><path
           d="M 632.811,416.685 V 366.229 H 638 v 50.456 h -5.189 z m 11.46,-63.718 -7.353,9.299 h -4.035 l 4.973,-9.299 h 6.415 z"
           id="path49"
           style="fill:#000000;fill-opacity:1"
           inkscape:connector-curvature="0" /><path
           d="m 667.547,404.215 h -12.253 l -2.523,12.47 h -5.046 l 10.669,-50.456 h 6.198 l 10.813,50.456 h -5.334 l -2.524,-12.47 z m -0.864,-4.541 -5.262,-26.237 -5.263,26.237 h 10.525 z"
           id="path51"
           style="fill:#000000;fill-opacity:1"
           inkscape:connector-curvature="0" /><path
           d="m 701.206,383.816 v -6.631 c 0,-4.83 -1.946,-6.921 -6.488,-6.921 -4.542,0 -6.487,2.091 -6.487,6.921 v 3.531 c 0,3.389 1.153,4.397 4.542,6.271 l 7.207,3.964 c 3.892,2.163 6.488,4.83 6.488,9.083 v 6.703 c 0,7.353 -3.964,10.523 -11.605,10.523 h -0.145 c -7.638,0 -11.605,-3.099 -11.605,-10.523 v -8.361 h 5.118 v 7.208 c 0,4.757 1.945,7.062 6.56,7.062 4.615,0 6.561,-2.306 6.561,-7.062 v -4.036 c 0,-3.389 -1.299,-4.686 -4.759,-6.631 l -7.063,-3.894 c -4.397,-2.45 -6.416,-4.54 -6.416,-8.937 v -6.056 c 0,-7.064 4.615,-10.377 11.533,-10.377 h 0.145 c 6.922,0 11.533,3.312 11.533,10.377 v 7.785 h -5.119 z"
           id="path53"
           style="fill:#000000;fill-opacity:1"
           inkscape:connector-curvature="0" /></g></g></g></svg>